<svg width="1920" height="1080" viewBox="0 0 1920 1080" fill="none" xmlns="http://www.w3.org/2000/svg">
<g id="Frame 2">
<rect width="1920" height="1080" fill="white"/>
<path id="label_mux_PCSource_1" d="M165.121 456.091V467H162.489V458.552H162.425L159.986 460.043V457.763L162.676 456.091H165.121Z" fill="black"/>
<path id="label_mux_PCSource_0" d="M163.499 449.266C162.547 449.266 161.727 449.041 161.038 448.59C160.349 448.135 159.818 447.484 159.445 446.635C159.072 445.783 158.888 444.758 158.891 443.561C158.895 442.365 159.081 441.349 159.45 440.515C159.823 439.676 160.352 439.039 161.038 438.602C161.727 438.162 162.547 437.942 163.499 437.942C164.45 437.942 165.271 438.162 165.96 438.602C166.652 439.039 167.185 439.676 167.558 440.515C167.93 441.353 168.115 442.368 168.112 443.561C168.112 444.762 167.925 445.788 167.552 446.64C167.179 447.493 166.649 448.144 165.96 448.595C165.274 449.043 164.454 449.266 163.499 449.266ZM163.499 447.109C164.067 447.109 164.527 446.82 164.878 446.241C165.23 445.658 165.404 444.765 165.4 443.561C165.4 442.773 165.32 442.123 165.161 441.612C165.001 441.097 164.779 440.713 164.495 440.461C164.211 440.209 163.879 440.083 163.499 440.083C162.934 440.083 162.478 440.369 162.13 440.941C161.782 441.509 161.606 442.382 161.602 443.561C161.599 444.36 161.675 445.023 161.831 445.548C161.991 446.074 162.215 446.466 162.503 446.725C162.79 446.981 163.122 447.109 163.499 447.109Z" fill="black"/>
<path id="label_mux_PCSource_1_2" d="M993.121 548.091V559H990.489V550.552H990.425L987.986 552.043V549.763L990.676 548.091H993.121Z" fill="black"/>
<path id="label_mux_PCSource_0_2" d="M991.499 541.266C990.547 541.266 989.727 541.041 989.038 540.59C988.349 540.135 987.818 539.484 987.445 538.635C987.072 537.783 986.888 536.758 986.891 535.561C986.895 534.365 987.081 533.349 987.45 532.515C987.823 531.676 988.352 531.039 989.038 530.602C989.727 530.162 990.547 529.942 991.499 529.942C992.45 529.942 993.271 530.162 993.96 530.602C994.652 531.039 995.185 531.676 995.558 532.515C995.93 533.353 996.115 534.368 996.112 535.561C996.112 536.762 995.925 537.788 995.552 538.64C995.179 539.493 994.649 540.144 993.96 540.595C993.274 541.043 992.454 541.266 991.499 541.266ZM991.499 539.109C992.067 539.109 992.527 538.82 992.878 538.241C993.23 537.658 993.404 536.765 993.4 535.561C993.4 534.773 993.32 534.123 993.161 533.612C993.001 533.097 992.779 532.713 992.495 532.461C992.211 532.209 991.879 532.083 991.499 532.083C990.934 532.083 990.478 532.369 990.13 532.941C989.782 533.509 989.606 534.382 989.602 535.561C989.599 536.36 989.675 537.023 989.831 537.548C989.991 538.074 990.215 538.466 990.503 538.725C990.79 538.981 991.122 539.109 991.499 539.109Z" fill="black"/>
<path id="label_mux_PCSource_1_3" d="M955.121 668.091V679H952.489V670.552H952.425L949.986 672.043V669.763L952.676 668.091H955.121Z" fill="black"/>
<path id="label_mux_PCSource_0_3" d="M953.499 661.266C952.547 661.266 951.727 661.041 951.038 660.59C950.349 660.135 949.818 659.484 949.445 658.635C949.072 657.783 948.888 656.758 948.891 655.561C948.895 654.365 949.081 653.349 949.45 652.515C949.823 651.676 950.352 651.039 951.038 650.602C951.727 650.162 952.547 649.942 953.499 649.942C954.45 649.942 955.271 650.162 955.96 650.602C956.652 651.039 957.185 651.676 957.558 652.515C957.93 653.353 958.115 654.368 958.112 655.561C958.112 656.762 957.925 657.788 957.552 658.64C957.179 659.493 956.649 660.144 955.96 660.595C955.274 661.043 954.454 661.266 953.499 661.266ZM953.499 659.109C954.067 659.109 954.527 658.82 954.878 658.241C955.23 657.658 955.404 656.765 955.4 655.561C955.4 654.773 955.32 654.123 955.161 653.612C955.001 653.097 954.779 652.713 954.495 652.461C954.211 652.209 953.879 652.083 953.499 652.083C952.934 652.083 952.478 652.369 952.13 652.941C951.782 653.509 951.606 654.382 951.602 655.561C951.599 656.36 951.675 657.023 951.831 657.548C951.991 658.074 952.215 658.466 952.503 658.725C952.79 658.981 953.122 659.109 953.499 659.109Z" fill="black"/>
<rect id="box_InstructionMemory" x="342.5" y="425.5" width="139" height="183" stroke="black" stroke-width="3"/>
<path id="label_im_title" d="M372.262 513.091V524H369.625V513.091H372.262ZM376.522 519.334V524H373.917V515.818H376.394V517.32H376.485C376.666 516.82 376.975 516.427 377.412 516.143C377.849 515.855 378.369 515.712 378.972 515.712C379.548 515.712 380.047 515.841 380.469 516.1C380.895 516.356 381.226 516.715 381.46 517.176C381.698 517.635 381.815 518.171 381.812 518.785V524H379.207V519.297C379.21 518.842 379.095 518.487 378.861 518.231C378.63 517.975 378.308 517.848 377.896 517.848C377.623 517.848 377.382 517.908 377.172 518.029C376.966 518.146 376.806 518.315 376.693 518.535C376.583 518.755 376.526 519.021 376.522 519.334ZM390.567 518.316L388.176 518.38C388.151 518.21 388.083 518.059 387.973 517.928C387.863 517.793 387.719 517.688 387.542 517.613C387.368 517.535 387.165 517.496 386.935 517.496C386.633 517.496 386.375 517.556 386.162 517.677C385.953 517.798 385.85 517.961 385.853 518.167C385.85 518.327 385.914 518.466 386.045 518.583C386.18 518.7 386.42 518.794 386.764 518.865L388.341 519.163C389.158 519.32 389.765 519.579 390.163 519.941C390.564 520.303 390.766 520.783 390.77 521.379C390.766 521.94 390.599 522.429 390.269 522.844C389.942 523.26 389.495 523.583 388.927 523.814C388.359 524.041 387.709 524.154 386.977 524.154C385.809 524.154 384.887 523.915 384.213 523.435C383.541 522.952 383.158 522.306 383.062 521.496L385.635 521.433C385.692 521.731 385.839 521.958 386.077 522.114C386.315 522.271 386.619 522.349 386.988 522.349C387.322 522.349 387.593 522.287 387.803 522.162C388.012 522.038 388.119 521.873 388.122 521.667C388.119 521.482 388.037 521.335 387.877 521.225C387.718 521.111 387.467 521.022 387.126 520.958L385.699 520.687C384.878 520.538 384.268 520.262 383.866 519.861C383.465 519.456 383.266 518.941 383.27 518.316C383.266 517.77 383.412 517.303 383.707 516.915C384.001 516.525 384.42 516.227 384.964 516.021C385.507 515.815 386.148 515.712 386.887 515.712C387.995 515.712 388.868 515.944 389.507 516.409C390.147 516.871 390.5 517.507 390.567 518.316ZM396.67 515.818V517.736H391.509V515.818H396.67ZM392.59 513.858H395.195V521.427C395.195 521.587 395.22 521.717 395.27 521.816C395.323 521.912 395.399 521.981 395.499 522.024C395.598 522.063 395.717 522.082 395.855 522.082C395.955 522.082 396.06 522.074 396.17 522.056C396.283 522.034 396.369 522.017 396.425 522.002L396.82 523.883C396.695 523.918 396.52 523.963 396.292 524.016C396.069 524.069 395.8 524.103 395.488 524.117C394.877 524.146 394.353 524.075 393.917 523.904C393.483 523.73 393.151 523.46 392.92 523.094C392.693 522.729 392.583 522.269 392.59 521.715V513.858ZM397.999 524V515.818H400.53V517.31H400.615C400.764 516.77 401.007 516.369 401.345 516.106C401.682 515.839 402.074 515.706 402.522 515.706C402.643 515.706 402.767 515.715 402.895 515.733C403.023 515.747 403.142 515.77 403.252 515.802V518.066C403.127 518.023 402.964 517.99 402.762 517.965C402.563 517.94 402.385 517.928 402.229 517.928C401.92 517.928 401.641 517.997 401.393 518.135C401.148 518.27 400.954 518.46 400.812 518.705C400.673 518.947 400.604 519.231 400.604 519.558V524H397.999ZM409.592 520.468V515.818H412.191V524H409.709V522.477H409.624C409.443 522.977 409.134 523.375 408.697 523.67C408.264 523.961 407.74 524.107 407.125 524.107C406.568 524.107 406.078 523.979 405.655 523.723C405.233 523.467 404.904 523.11 404.67 522.652C404.435 522.191 404.316 521.651 404.313 521.033V515.818H406.918V520.522C406.921 520.966 407.038 521.315 407.269 521.571C407.5 521.827 407.814 521.955 408.212 521.955C408.471 521.955 408.704 521.898 408.91 521.784C409.119 521.667 409.285 521.498 409.405 521.278C409.53 521.054 409.592 520.784 409.592 520.468ZM417.668 524.154C416.805 524.154 416.065 523.977 415.447 523.622C414.833 523.267 414.36 522.773 414.03 522.141C413.7 521.505 413.535 520.77 413.535 519.936C413.535 519.098 413.7 518.363 414.03 517.73C414.364 517.095 414.838 516.599 415.452 516.244C416.07 515.889 416.807 515.712 417.663 515.712C418.419 515.712 419.078 515.848 419.639 516.122C420.204 516.395 420.644 516.782 420.96 517.283C421.28 517.78 421.449 518.364 421.466 519.036H419.032C418.982 518.616 418.84 518.288 418.606 518.05C418.375 517.812 418.073 517.693 417.7 517.693C417.398 517.693 417.134 517.778 416.907 517.949C416.679 518.116 416.502 518.364 416.374 518.695C416.25 519.021 416.188 519.426 416.188 519.909C416.188 520.392 416.25 520.8 416.374 521.134C416.502 521.464 416.679 521.715 416.907 521.885C417.134 522.052 417.398 522.136 417.7 522.136C417.942 522.136 418.155 522.084 418.339 521.981C418.528 521.878 418.682 521.727 418.803 521.528C418.924 521.326 419 521.081 419.032 520.793H421.466C421.441 521.468 421.273 522.058 420.96 522.562C420.651 523.066 420.216 523.458 419.655 523.739C419.098 524.016 418.435 524.154 417.668 524.154ZM427.418 515.818V517.736H422.256V515.818H427.418ZM423.337 513.858H425.942V521.427C425.942 521.587 425.967 521.717 426.017 521.816C426.07 521.912 426.146 521.981 426.246 522.024C426.345 522.063 426.464 522.082 426.603 522.082C426.702 522.082 426.807 522.074 426.917 522.056C427.03 522.034 427.116 522.017 427.172 522.002L427.567 523.883C427.442 523.918 427.267 523.963 427.039 524.016C426.816 524.069 426.547 524.103 426.235 524.117C425.624 524.146 425.1 524.075 424.664 523.904C424.23 523.73 423.898 523.46 423.668 523.094C423.44 522.729 423.33 522.269 423.337 521.715V513.858ZM428.747 524V515.818H431.351V524H428.747ZM430.052 514.865C429.686 514.865 429.372 514.744 429.109 514.502C428.846 514.257 428.715 513.963 428.715 513.618C428.715 513.277 428.846 512.986 429.109 512.745C429.372 512.5 429.686 512.377 430.052 512.377C430.421 512.377 430.735 512.5 430.994 512.745C431.257 512.986 431.389 513.277 431.389 513.618C431.389 513.963 431.257 514.257 430.994 514.502C430.735 514.744 430.421 514.865 430.052 514.865ZM436.828 524.154C435.969 524.154 435.23 523.979 434.613 523.627C433.998 523.272 433.524 522.778 433.19 522.146C432.86 521.511 432.695 520.774 432.695 519.936C432.695 519.094 432.86 518.357 433.19 517.725C433.524 517.089 433.998 516.596 434.613 516.244C435.23 515.889 435.969 515.712 436.828 515.712C437.688 515.712 438.425 515.889 439.039 516.244C439.657 516.596 440.131 517.089 440.461 517.725C440.795 518.357 440.962 519.094 440.962 519.936C440.962 520.774 440.795 521.511 440.461 522.146C440.131 522.778 439.657 523.272 439.039 523.627C438.425 523.979 437.688 524.154 436.828 524.154ZM436.844 522.189C437.157 522.189 437.422 522.093 437.638 521.901C437.855 521.71 438.02 521.443 438.134 521.102C438.251 520.761 438.309 520.367 438.309 519.92C438.309 519.465 438.251 519.067 438.134 518.727C438.02 518.386 437.855 518.119 437.638 517.928C437.422 517.736 437.157 517.64 436.844 517.64C436.521 517.64 436.248 517.736 436.024 517.928C435.804 518.119 435.635 518.386 435.518 518.727C435.404 519.067 435.348 519.465 435.348 519.92C435.348 520.367 435.404 520.761 435.518 521.102C435.635 521.443 435.804 521.71 436.024 521.901C436.248 522.093 436.521 522.189 436.844 522.189ZM444.901 519.334V524H442.296V515.818H444.773V517.32H444.864C445.045 516.82 445.354 516.427 445.791 516.143C446.227 515.855 446.748 515.712 447.351 515.712C447.927 515.712 448.426 515.841 448.848 516.1C449.274 516.356 449.605 516.715 449.839 517.176C450.077 517.635 450.194 518.171 450.191 518.785V524H447.586V519.297C447.589 518.842 447.474 518.487 447.24 518.231C447.009 517.975 446.687 517.848 446.275 517.848C446.002 517.848 445.76 517.908 445.551 518.029C445.345 518.146 445.185 518.315 445.072 518.535C444.961 518.755 444.905 519.021 444.901 519.334ZM381.549 531.091H384.815L387.584 537.845H387.712L390.482 531.091H393.747V542H391.18V535.299H391.089L388.469 541.931H386.828L384.207 535.262H384.117V542H381.549V531.091ZM399.217 542.154C398.361 542.154 397.622 541.986 397.001 541.648C396.383 541.308 395.907 540.823 395.573 540.194C395.243 539.562 395.078 538.811 395.078 537.941C395.078 537.096 395.245 536.357 395.578 535.725C395.912 535.089 396.383 534.596 396.99 534.244C397.597 533.889 398.313 533.712 399.137 533.712C399.719 533.712 400.252 533.802 400.735 533.983C401.218 534.164 401.635 534.433 401.987 534.788C402.338 535.143 402.612 535.581 402.807 536.103C403.002 536.622 403.1 537.217 403.1 537.888V538.538H395.989V537.025H400.676C400.673 536.748 400.607 536.501 400.479 536.284C400.351 536.068 400.175 535.899 399.952 535.778C399.732 535.654 399.478 535.592 399.19 535.592C398.899 535.592 398.638 535.658 398.407 535.789C398.176 535.917 397.993 536.093 397.858 536.316C397.723 536.537 397.652 536.787 397.645 537.067V538.607C397.645 538.941 397.711 539.234 397.842 539.486C397.974 539.734 398.16 539.928 398.402 540.066C398.643 540.205 398.931 540.274 399.265 540.274C399.495 540.274 399.705 540.242 399.893 540.178C400.081 540.114 400.243 540.02 400.378 539.896C400.513 539.772 400.614 539.619 400.681 539.438L403.073 539.507C402.974 540.043 402.755 540.51 402.418 540.908C402.084 541.302 401.646 541.609 401.102 541.83C400.559 542.046 399.93 542.154 399.217 542.154ZM404.43 542V533.818H406.907V535.32H406.998C407.168 534.823 407.456 534.431 407.861 534.143C408.265 533.855 408.748 533.712 409.309 533.712C409.878 533.712 410.364 533.857 410.769 534.148C411.174 534.44 411.431 534.83 411.541 535.32H411.627C411.779 534.834 412.078 534.445 412.521 534.154C412.965 533.859 413.489 533.712 414.093 533.712C414.867 533.712 415.495 533.96 415.978 534.457C416.461 534.951 416.703 535.629 416.703 536.492V542H414.098V537.089C414.098 536.68 413.993 536.37 413.784 536.157C413.574 535.94 413.303 535.832 412.969 535.832C412.61 535.832 412.328 535.949 412.122 536.183C411.919 536.414 411.818 536.725 411.818 537.115V542H409.315V537.062C409.315 536.682 409.212 536.382 409.006 536.162C408.8 535.942 408.528 535.832 408.191 535.832C407.964 535.832 407.763 535.887 407.589 535.997C407.415 536.103 407.278 536.256 407.179 536.455C407.083 536.654 407.035 536.888 407.035 537.158V542H404.43ZM422.136 542.154C421.277 542.154 420.538 541.979 419.92 541.627C419.306 541.272 418.832 540.778 418.498 540.146C418.168 539.511 418.003 538.774 418.003 537.936C418.003 537.094 418.168 536.357 418.498 535.725C418.832 535.089 419.306 534.596 419.92 534.244C420.538 533.889 421.277 533.712 422.136 533.712C422.995 533.712 423.732 533.889 424.347 534.244C424.965 534.596 425.439 535.089 425.769 535.725C426.103 536.357 426.27 537.094 426.27 537.936C426.27 538.774 426.103 539.511 425.769 540.146C425.439 540.778 424.965 541.272 424.347 541.627C423.732 541.979 422.995 542.154 422.136 542.154ZM422.152 540.189C422.465 540.189 422.729 540.093 422.946 539.901C423.162 539.71 423.328 539.443 423.441 539.102C423.558 538.761 423.617 538.367 423.617 537.92C423.617 537.465 423.558 537.067 423.441 536.727C423.328 536.386 423.162 536.119 422.946 535.928C422.729 535.736 422.465 535.64 422.152 535.64C421.829 535.64 421.555 535.736 421.332 535.928C421.112 536.119 420.943 536.386 420.826 536.727C420.712 537.067 420.655 537.465 420.655 537.92C420.655 538.367 420.712 538.761 420.826 539.102C420.943 539.443 421.112 539.71 421.332 539.901C421.555 540.093 421.829 540.189 422.152 540.189ZM427.604 542V533.818H430.134V535.31H430.219C430.369 534.77 430.612 534.369 430.949 534.106C431.286 533.839 431.679 533.706 432.126 533.706C432.247 533.706 432.371 533.715 432.499 533.733C432.627 533.747 432.746 533.77 432.856 533.802V536.066C432.732 536.023 432.568 535.99 432.366 535.965C432.167 535.94 431.99 535.928 431.833 535.928C431.524 535.928 431.246 535.997 430.997 536.135C430.752 536.27 430.559 536.46 430.416 536.705C430.278 536.947 430.209 537.231 430.209 537.558V542H427.604ZM435.759 545.068C435.447 545.068 435.152 545.043 434.875 544.994C434.598 544.947 434.36 544.885 434.161 544.807L434.736 542.916C434.992 543.001 435.223 543.051 435.429 543.065C435.638 543.08 435.818 543.046 435.967 542.964C436.12 542.886 436.237 542.746 436.318 542.543L436.42 542.298L433.511 533.818H436.239L437.746 539.656H437.831L439.36 533.818H442.103L439.019 542.783C438.87 543.23 438.659 543.625 438.385 543.966C438.115 544.31 437.766 544.58 437.336 544.775C436.91 544.971 436.384 545.068 435.759 545.068Z" fill="black"/>
<path id="label_rf_title" d="M715.778 561V550.091H720.285C721.101 550.091 721.806 550.238 722.399 550.533C722.996 550.824 723.456 551.243 723.779 551.79C724.102 552.333 724.264 552.978 724.264 553.724C724.264 554.48 724.099 555.123 723.768 555.652C723.438 556.178 722.969 556.579 722.362 556.856C721.755 557.129 721.036 557.266 720.205 557.266H717.355V555.189H719.715C720.112 555.189 720.444 555.137 720.711 555.034C720.981 554.928 721.185 554.768 721.323 554.555C721.462 554.338 721.531 554.061 721.531 553.724C721.531 553.386 721.462 553.108 721.323 552.887C721.185 552.664 720.981 552.497 720.711 552.387C720.441 552.273 720.109 552.216 719.715 552.216H718.415V561H715.778ZM721.92 556.014L724.637 561H721.76L719.097 556.014H721.92ZM729.373 561.154C728.518 561.154 727.779 560.986 727.157 560.648C726.54 560.308 726.064 559.823 725.73 559.194C725.4 558.562 725.235 557.811 725.235 556.941C725.235 556.096 725.401 555.357 725.735 554.725C726.069 554.089 726.54 553.596 727.147 553.244C727.754 552.889 728.47 552.712 729.293 552.712C729.876 552.712 730.409 552.802 730.891 552.983C731.374 553.164 731.792 553.433 732.143 553.788C732.495 554.143 732.768 554.581 732.964 555.103C733.159 555.622 733.257 556.217 733.257 556.888V557.538H726.145V556.025H730.833C730.829 555.748 730.764 555.501 730.636 555.284C730.508 555.068 730.332 554.899 730.108 554.778C729.888 554.654 729.634 554.592 729.347 554.592C729.056 554.592 728.795 554.658 728.564 554.789C728.333 554.917 728.15 555.093 728.015 555.316C727.88 555.537 727.809 555.787 727.802 556.067V557.607C727.802 557.941 727.868 558.234 727.999 558.486C728.13 558.734 728.317 558.928 728.558 559.066C728.8 559.205 729.087 559.274 729.421 559.274C729.652 559.274 729.862 559.242 730.05 559.178C730.238 559.114 730.4 559.02 730.535 558.896C730.67 558.772 730.771 558.619 730.838 558.438L733.23 558.507C733.13 559.043 732.912 559.51 732.575 559.908C732.241 560.302 731.802 560.609 731.259 560.83C730.716 561.046 730.087 561.154 729.373 561.154ZM738.401 564.239C737.623 564.239 736.957 564.13 736.403 563.914C735.849 563.697 735.414 563.401 735.098 563.024C734.782 562.648 734.592 562.222 734.528 561.746L736.995 561.607C737.041 561.774 737.126 561.92 737.25 562.044C737.378 562.168 737.543 562.264 737.746 562.332C737.952 562.399 738.193 562.433 738.47 562.433C738.907 562.433 739.267 562.326 739.551 562.113C739.839 561.904 739.983 561.536 739.983 561.011V559.572H739.892C739.789 559.825 739.633 560.05 739.424 560.249C739.214 560.448 738.953 560.604 738.64 560.718C738.332 560.831 737.976 560.888 737.575 560.888C736.979 560.888 736.432 560.75 735.935 560.473C735.441 560.192 735.045 559.759 734.747 559.173C734.452 558.583 734.305 557.825 734.305 556.898C734.305 555.943 734.457 555.157 734.763 554.539C735.068 553.917 735.468 553.457 735.961 553.159C736.458 552.861 736.993 552.712 737.564 552.712C737.994 552.712 738.362 552.786 738.667 552.935C738.976 553.081 739.23 553.269 739.429 553.5C739.628 553.731 739.779 553.971 739.882 554.219H739.956V552.818H742.55V561.032C742.55 561.724 742.376 562.309 742.028 562.784C741.68 563.26 741.194 563.621 740.569 563.866C739.944 564.114 739.221 564.239 738.401 564.239ZM738.481 558.992C738.797 558.992 739.067 558.908 739.29 558.741C739.514 558.575 739.686 558.335 739.807 558.022C739.928 557.71 739.988 557.335 739.988 556.898C739.988 556.455 739.928 556.073 739.807 555.753C739.69 555.43 739.518 555.181 739.29 555.007C739.067 554.833 738.797 554.746 738.481 554.746C738.158 554.746 737.884 554.835 737.66 555.013C737.437 555.19 737.266 555.441 737.149 555.764C737.035 556.083 736.979 556.462 736.979 556.898C736.979 557.335 737.037 557.71 737.154 558.022C737.272 558.335 737.44 558.575 737.66 558.741C737.884 558.908 738.158 558.992 738.481 558.992ZM744.211 561V552.818H746.816V561H744.211ZM745.516 551.865C745.15 551.865 744.836 551.744 744.573 551.502C744.31 551.257 744.179 550.963 744.179 550.618C744.179 550.277 744.31 549.986 744.573 549.745C744.836 549.5 745.15 549.377 745.516 549.377C745.885 549.377 746.2 549.5 746.459 549.745C746.722 549.986 746.853 550.277 746.853 550.618C746.853 550.963 746.722 551.257 746.459 551.502C746.2 551.744 745.885 551.865 745.516 551.865ZM755.617 555.316L753.225 555.38C753.2 555.21 753.133 555.059 753.023 554.928C752.913 554.793 752.769 554.688 752.591 554.613C752.417 554.535 752.215 554.496 751.984 554.496C751.682 554.496 751.425 554.556 751.212 554.677C751.002 554.798 750.899 554.961 750.903 555.167C750.899 555.327 750.963 555.466 751.094 555.583C751.229 555.7 751.469 555.794 751.813 555.865L753.39 556.163C754.207 556.32 754.814 556.579 755.212 556.941C755.613 557.303 755.816 557.783 755.819 558.379C755.816 558.94 755.649 559.429 755.318 559.844C754.992 560.26 754.544 560.583 753.976 560.814C753.408 561.041 752.758 561.154 752.027 561.154C750.858 561.154 749.937 560.915 749.262 560.435C748.591 559.952 748.207 559.306 748.111 558.496L750.684 558.433C750.741 558.731 750.888 558.958 751.126 559.114C751.364 559.271 751.668 559.349 752.037 559.349C752.371 559.349 752.643 559.287 752.852 559.162C753.062 559.038 753.168 558.873 753.172 558.667C753.168 558.482 753.087 558.335 752.927 558.225C752.767 558.111 752.517 558.022 752.176 557.958L750.748 557.687C749.928 557.538 749.317 557.262 748.916 556.861C748.514 556.456 748.316 555.941 748.319 555.316C748.316 554.77 748.461 554.303 748.756 553.915C749.051 553.525 749.47 553.227 750.013 553.021C750.556 552.815 751.197 552.712 751.936 552.712C753.044 552.712 753.917 552.944 754.557 553.409C755.196 553.871 755.549 554.507 755.617 555.316ZM761.72 552.818V554.736H756.558V552.818H761.72ZM757.64 550.858H760.244V558.427C760.244 558.587 760.269 558.717 760.319 558.816C760.372 558.912 760.448 558.981 760.548 559.024C760.647 559.063 760.766 559.082 760.905 559.082C761.004 559.082 761.109 559.074 761.219 559.056C761.333 559.034 761.418 559.017 761.475 559.002L761.869 560.883C761.745 560.918 761.569 560.963 761.342 561.016C761.118 561.069 760.85 561.103 760.537 561.117C759.926 561.146 759.403 561.075 758.966 560.904C758.533 560.73 758.201 560.46 757.97 560.094C757.742 559.729 757.632 559.269 757.64 558.715V550.858ZM766.785 561.154C765.93 561.154 765.191 560.986 764.57 560.648C763.952 560.308 763.476 559.823 763.142 559.194C762.812 558.562 762.647 557.811 762.647 556.941C762.647 556.096 762.814 555.357 763.147 554.725C763.481 554.089 763.952 553.596 764.559 553.244C765.166 552.889 765.882 552.712 766.706 552.712C767.288 552.712 767.821 552.802 768.304 552.983C768.787 553.164 769.204 553.433 769.555 553.788C769.907 554.143 770.18 554.581 770.376 555.103C770.571 555.622 770.669 556.217 770.669 556.888V557.538H763.557V556.025H768.245C768.241 555.748 768.176 555.501 768.048 555.284C767.92 555.068 767.744 554.899 767.521 554.778C767.3 554.654 767.046 554.592 766.759 554.592C766.468 554.592 766.207 554.658 765.976 554.789C765.745 554.917 765.562 555.093 765.427 555.316C765.292 555.537 765.221 555.787 765.214 556.067V557.607C765.214 557.941 765.28 558.234 765.411 558.486C765.543 558.734 765.729 558.928 765.97 559.066C766.212 559.205 766.5 559.274 766.833 559.274C767.064 559.274 767.274 559.242 767.462 559.178C767.65 559.114 767.812 559.02 767.947 558.896C768.082 558.772 768.183 558.619 768.25 558.438L770.642 558.507C770.543 559.043 770.324 559.51 769.987 559.908C769.653 560.302 769.214 560.609 768.671 560.83C768.128 561.046 767.499 561.154 766.785 561.154ZM771.999 561V552.818H774.529V554.31H774.614C774.764 553.77 775.007 553.369 775.344 553.106C775.682 552.839 776.074 552.706 776.521 552.706C776.642 552.706 776.766 552.715 776.894 552.733C777.022 552.747 777.141 552.77 777.251 552.802V555.066C777.127 555.023 776.963 554.99 776.761 554.965C776.562 554.94 776.385 554.928 776.228 554.928C775.919 554.928 775.641 554.997 775.392 555.135C775.147 555.27 774.954 555.46 774.811 555.705C774.673 555.947 774.604 556.231 774.604 556.558V561H771.999ZM781.535 561V550.091H788.982V552.232H784.172V554.469H788.508V556.616H784.172V561H781.535ZM790.31 561V552.818H792.914V561H790.31ZM791.615 551.865C791.249 551.865 790.935 551.744 790.672 551.502C790.409 551.257 790.278 550.963 790.278 550.618C790.278 550.277 790.409 549.986 790.672 549.745C790.935 549.5 791.249 549.377 791.615 549.377C791.984 549.377 792.298 549.5 792.557 549.745C792.82 549.986 792.952 550.277 792.952 550.618C792.952 550.963 792.82 551.257 792.557 551.502C792.298 551.744 791.984 551.865 791.615 551.865ZM797.177 550.091V561H794.572V550.091H797.177ZM802.659 561.154C801.804 561.154 801.065 560.986 800.444 560.648C799.826 560.308 799.35 559.823 799.016 559.194C798.686 558.562 798.521 557.811 798.521 556.941C798.521 556.096 798.688 555.357 799.021 554.725C799.355 554.089 799.826 553.596 800.433 553.244C801.04 552.889 801.756 552.712 802.58 552.712C803.162 552.712 803.695 552.802 804.178 552.983C804.661 553.164 805.078 553.433 805.429 553.788C805.781 554.143 806.054 554.581 806.25 555.103C806.445 555.622 806.543 556.217 806.543 556.888V557.538H799.432V556.025H804.119C804.115 555.748 804.05 555.501 803.922 555.284C803.794 555.068 803.618 554.899 803.395 554.778C803.174 554.654 802.92 554.592 802.633 554.592C802.342 554.592 802.081 554.658 801.85 554.789C801.619 554.917 801.436 555.093 801.301 555.316C801.166 555.537 801.095 555.787 801.088 556.067V557.607C801.088 557.941 801.154 558.234 801.285 558.486C801.417 558.734 801.603 558.928 801.845 559.066C802.086 559.205 802.374 559.274 802.707 559.274C802.938 559.274 803.148 559.242 803.336 559.178C803.524 559.114 803.686 559.02 803.821 558.896C803.956 558.772 804.057 558.619 804.124 558.438L806.516 558.507C806.417 559.043 806.198 559.51 805.861 559.908C805.527 560.302 805.088 560.609 804.545 560.83C804.002 561.046 803.373 561.154 802.659 561.154Z" fill="black"/>
<path id="label_sext_title" d="M696.447 802.362C696.412 801.971 696.254 801.667 695.973 801.451C695.696 801.23 695.3 801.12 694.785 801.12C694.445 801.12 694.16 801.165 693.933 801.254C693.706 801.342 693.535 801.465 693.422 801.621C693.308 801.774 693.25 801.95 693.246 802.148C693.239 802.312 693.271 802.456 693.342 802.58C693.417 802.704 693.523 802.814 693.662 802.91C693.804 803.002 693.974 803.084 694.173 803.155C694.372 803.226 694.595 803.288 694.844 803.342L695.782 803.555C696.321 803.672 696.797 803.828 697.209 804.023C697.625 804.219 697.973 804.451 698.253 804.721C698.537 804.991 698.752 805.302 698.898 805.653C699.043 806.005 699.118 806.399 699.121 806.836C699.118 807.525 698.944 808.116 698.599 808.61C698.255 809.103 697.76 809.482 697.113 809.744C696.47 810.007 695.695 810.138 694.785 810.138C693.873 810.138 693.077 810.002 692.399 809.728C691.721 809.455 691.193 809.039 690.817 808.482C690.441 807.924 690.247 807.219 690.236 806.367H692.761C692.783 806.719 692.877 807.012 693.044 807.246C693.211 807.48 693.44 807.658 693.731 807.779C694.026 807.9 694.366 807.96 694.754 807.96C695.109 807.96 695.41 807.912 695.659 807.816C695.911 807.72 696.105 807.587 696.24 807.417C696.375 807.246 696.444 807.051 696.447 806.831C696.444 806.625 696.38 806.449 696.256 806.303C696.131 806.154 695.94 806.026 695.68 805.92C695.425 805.81 695.098 805.708 694.7 805.616L693.56 805.35C692.616 805.133 691.872 804.783 691.328 804.3C690.785 803.814 690.515 803.157 690.519 802.33C690.515 801.655 690.696 801.064 691.062 800.556C691.428 800.048 691.934 799.652 692.58 799.368C693.227 799.084 693.963 798.942 694.791 798.942C695.636 798.942 696.369 799.086 696.991 799.373C697.616 799.657 698.1 800.057 698.445 800.572C698.789 801.087 698.965 801.683 698.972 802.362H696.447ZM700.453 810V801.818H703.058V810H700.453ZM701.758 800.865C701.392 800.865 701.078 800.744 700.815 800.502C700.553 800.257 700.421 799.963 700.421 799.618C700.421 799.277 700.553 798.986 700.815 798.745C701.078 798.5 701.392 798.377 701.758 798.377C702.127 798.377 702.442 798.5 702.701 798.745C702.964 798.986 703.095 799.277 703.095 799.618C703.095 799.963 702.964 800.257 702.701 800.502C702.442 800.744 702.127 800.865 701.758 800.865ZM708.53 813.239C707.752 813.239 707.086 813.13 706.532 812.914C705.978 812.697 705.543 812.401 705.227 812.024C704.911 811.648 704.721 811.222 704.657 810.746L707.123 810.607C707.17 810.774 707.255 810.92 707.379 811.044C707.507 811.168 707.672 811.264 707.875 811.332C708.08 811.399 708.322 811.433 708.599 811.433C709.036 811.433 709.396 811.326 709.68 811.113C709.968 810.904 710.112 810.536 710.112 810.011V808.572H710.021C709.918 808.825 709.762 809.05 709.552 809.249C709.343 809.448 709.082 809.604 708.769 809.718C708.46 809.831 708.105 809.888 707.704 809.888C707.107 809.888 706.561 809.75 706.063 809.473C705.57 809.192 705.174 808.759 704.876 808.173C704.581 807.583 704.433 806.825 704.433 805.898C704.433 804.943 704.586 804.157 704.892 803.539C705.197 802.917 705.596 802.457 706.09 802.159C706.587 801.861 707.122 801.712 707.693 801.712C708.123 801.712 708.491 801.786 708.796 801.935C709.105 802.081 709.359 802.269 709.558 802.5C709.757 802.731 709.908 802.971 710.011 803.219H710.085V801.818H712.679V810.032C712.679 810.724 712.505 811.309 712.157 811.784C711.809 812.26 711.323 812.621 710.698 812.866C710.073 813.114 709.35 813.239 708.53 813.239ZM708.61 807.992C708.926 807.992 709.196 807.908 709.419 807.741C709.643 807.575 709.815 807.335 709.936 807.022C710.057 806.71 710.117 806.335 710.117 805.898C710.117 805.455 710.057 805.073 709.936 804.753C709.819 804.43 709.647 804.181 709.419 804.007C709.196 803.833 708.926 803.746 708.61 803.746C708.286 803.746 708.013 803.835 707.789 804.013C707.566 804.19 707.395 804.441 707.278 804.764C707.164 805.083 707.107 805.462 707.107 805.898C707.107 806.335 707.166 806.71 707.283 807.022C707.4 807.335 707.569 807.575 707.789 807.741C708.013 807.908 708.286 807.992 708.61 807.992ZM716.945 805.334V810H714.34V801.818H716.817V803.32H716.907C717.088 802.82 717.397 802.427 717.834 802.143C718.271 801.855 718.791 801.712 719.395 801.712C719.97 801.712 720.469 801.841 720.892 802.1C721.318 802.356 721.648 802.715 721.882 803.176C722.12 803.635 722.238 804.171 722.234 804.785V810H719.629V805.297C719.633 804.842 719.517 804.487 719.283 804.231C719.052 803.975 718.731 803.848 718.319 803.848C718.045 803.848 717.804 803.908 717.594 804.029C717.388 804.146 717.229 804.315 717.115 804.535C717.005 804.755 716.948 805.021 716.945 805.334ZM727.069 810V799.091H734.676V801.232H729.706V803.469H734.287V805.616H729.706V807.859H734.676V810H727.069ZM738.543 801.818L739.891 804.513L741.286 801.818H743.912L741.627 805.909L743.998 810H741.393L739.891 807.283L738.426 810H735.784L738.159 805.909L735.901 801.818H738.543ZM749.72 801.818V803.736H744.558V801.818H749.72ZM745.64 799.858H748.244V807.427C748.244 807.587 748.269 807.717 748.319 807.816C748.372 807.912 748.448 807.981 748.548 808.024C748.647 808.063 748.766 808.082 748.905 808.082C749.004 808.082 749.109 808.074 749.219 808.056C749.333 808.034 749.418 808.017 749.475 808.002L749.869 809.883C749.745 809.918 749.569 809.963 749.342 810.016C749.118 810.069 748.85 810.103 748.537 810.117C747.926 810.146 747.403 810.075 746.966 809.904C746.533 809.73 746.201 809.46 745.97 809.094C745.742 808.729 745.632 808.269 745.64 807.715V799.858ZM754.785 810.154C753.93 810.154 753.191 809.986 752.57 809.648C751.952 809.308 751.476 808.823 751.142 808.194C750.812 807.562 750.647 806.811 750.647 805.941C750.647 805.096 750.814 804.357 751.147 803.725C751.481 803.089 751.952 802.596 752.559 802.244C753.166 801.889 753.882 801.712 754.706 801.712C755.288 801.712 755.821 801.802 756.304 801.983C756.787 802.164 757.204 802.433 757.555 802.788C757.907 803.143 758.18 803.581 758.376 804.103C758.571 804.622 758.669 805.217 758.669 805.888V806.538H751.557V805.025H756.245C756.241 804.748 756.176 804.501 756.048 804.284C755.92 804.068 755.744 803.899 755.521 803.778C755.3 803.654 755.046 803.592 754.759 803.592C754.468 803.592 754.207 803.658 753.976 803.789C753.745 803.917 753.562 804.093 753.427 804.316C753.292 804.537 753.221 804.787 753.214 805.067V806.607C753.214 806.941 753.28 807.234 753.411 807.486C753.543 807.734 753.729 807.928 753.97 808.066C754.212 808.205 754.5 808.274 754.833 808.274C755.064 808.274 755.274 808.242 755.462 808.178C755.65 808.114 755.812 808.02 755.947 807.896C756.082 807.772 756.183 807.619 756.25 807.438L758.642 807.507C758.543 808.043 758.324 808.51 757.987 808.908C757.653 809.302 757.214 809.609 756.671 809.83C756.128 810.046 755.499 810.154 754.785 810.154ZM762.604 805.334V810H759.999V801.818H762.476V803.32H762.566C762.748 802.82 763.057 802.427 763.493 802.143C763.93 801.855 764.45 801.712 765.054 801.712C765.629 801.712 766.128 801.841 766.551 802.1C766.977 802.356 767.307 802.715 767.542 803.176C767.78 803.635 767.897 804.171 767.893 804.785V810H765.288V805.297C765.292 804.842 765.177 804.487 764.942 804.231C764.711 803.975 764.39 803.848 763.978 803.848C763.705 803.848 763.463 803.908 763.254 804.029C763.048 804.146 762.888 804.315 762.774 804.535C762.664 804.755 762.607 805.021 762.604 805.334ZM772.494 810.117C771.89 810.117 771.342 809.961 770.848 809.648C770.355 809.336 769.96 808.867 769.666 808.242C769.371 807.617 769.223 806.841 769.223 805.914C769.223 804.952 769.376 804.16 769.682 803.539C769.987 802.917 770.386 802.457 770.88 802.159C771.377 801.861 771.912 801.712 772.483 801.712C772.913 801.712 773.281 801.786 773.586 801.935C773.891 802.081 774.144 802.269 774.342 802.5C774.541 802.731 774.692 802.971 774.795 803.219H774.848V799.091H777.453V810H774.875V808.674H774.795C774.685 808.926 774.529 809.162 774.326 809.382C774.124 809.602 773.87 809.78 773.565 809.915C773.263 810.05 772.906 810.117 772.494 810.117ZM773.4 808.088C773.716 808.088 773.986 807.999 774.209 807.821C774.433 807.64 774.605 807.386 774.726 807.06C774.847 806.733 774.907 806.349 774.907 805.909C774.907 805.462 774.847 805.076 774.726 804.753C774.609 804.43 774.437 804.181 774.209 804.007C773.986 803.833 773.716 803.746 773.4 803.746C773.076 803.746 772.803 803.835 772.579 804.013C772.356 804.19 772.185 804.441 772.068 804.764C771.954 805.087 771.898 805.469 771.898 805.909C771.898 806.349 771.956 806.733 772.073 807.06C772.19 807.386 772.359 807.64 772.579 807.821C772.803 807.999 773.076 808.088 773.4 808.088Z" fill="black"/>
<path id="label_im_A" d="M350.899 471H348.065L351.746 460.091H355.256L358.937 471H356.103L353.541 462.839H353.456L350.899 471ZM350.521 466.707H356.444V468.71H350.521V466.707Z" fill="black"/>
<path id="label_im_RD" d="M455.381 471V460.091H459.888C460.704 460.091 461.409 460.238 462.002 460.533C462.599 460.824 463.059 461.243 463.382 461.79C463.705 462.333 463.867 462.978 463.867 463.724C463.867 464.48 463.702 465.123 463.371 465.652C463.041 466.178 462.572 466.579 461.965 466.856C461.358 467.129 460.639 467.266 459.808 467.266H456.958V465.189H459.318C459.715 465.189 460.047 465.137 460.314 465.034C460.584 464.928 460.788 464.768 460.926 464.555C461.065 464.338 461.134 464.061 461.134 463.724C461.134 463.386 461.065 463.108 460.926 462.887C460.788 462.664 460.584 462.497 460.314 462.387C460.044 462.273 459.712 462.216 459.318 462.216H458.018V471H455.381ZM461.523 466.014L464.24 471H461.363L458.7 466.014H461.523ZM469.345 471H465.313V460.091H469.34C470.451 460.091 471.408 460.309 472.211 460.746C473.017 461.179 473.639 461.804 474.075 462.621C474.512 463.434 474.731 464.407 474.731 465.54C474.731 466.676 474.512 467.653 474.075 468.47C473.642 469.287 473.022 469.913 472.216 470.35C471.41 470.783 470.453 471 469.345 471ZM467.95 468.752H469.244C469.855 468.752 470.372 468.649 470.794 468.443C471.22 468.234 471.542 467.895 471.758 467.426C471.978 466.953 472.089 466.325 472.089 465.54C472.089 464.755 471.978 464.13 471.758 463.665C471.538 463.196 471.213 462.859 470.783 462.653C470.357 462.444 469.832 462.339 469.207 462.339H467.95V468.752Z" fill="black"/>
<path id="box_IF_ID_Register" fill-rule="evenodd" clip-rule="evenodd" d="M540.47 417.582H540.524V896.941H508.112V417.582H508.53L508.479 417.5H540.521L540.47 417.582ZM511.112 893.941H537.524V422.27L524.5 443L511.112 421.691V893.941ZM524.5 437.362L535.042 420.582H513.958L524.5 437.362Z" fill="black"/>
<path id="wire_PCF" d="M270 451H306.053M306.053 451V688H367M306.053 451H342.5" stroke="black" stroke-width="3"/>
<g id="mux_PC">
<mask id="path-15-inside-1_6_98" fill="white">
<path d="M153 424L182 438.709V464.917L153 480V424Z"/>
</mask>
<path d="M153 424L182 438.709V464.917L153 480V424Z" stroke="black" stroke-width="6" mask="url(#path-15-inside-1_6_98)"/>
</g>
<g id="mux_ALUSrc">
<mask id="path-16-inside-2_6_98" fill="white">
<path d="M981 517L1010 531.709V557.917L981 573V517Z"/>
</mask>
<path d="M981 517L1010 531.709V557.917L981 573V517Z" stroke="black" stroke-width="6" mask="url(#path-16-inside-2_6_98)"/>
</g>
<path id="label_mux_PCSource_1_4" d="M1562.12 494.091V505H1559.49V496.552H1559.43L1556.99 498.043V495.763L1559.68 494.091H1562.12Z" fill="black"/>
<path id="label_mux_PCSource_0_4" d="M1560.5 487.266C1559.55 487.266 1558.73 487.041 1558.04 486.59C1557.35 486.135 1556.82 485.484 1556.45 484.635C1556.07 483.783 1555.89 482.758 1555.89 481.561C1555.89 480.365 1556.08 479.349 1556.45 478.515C1556.82 477.676 1557.35 477.039 1558.04 476.602C1558.73 476.162 1559.55 475.942 1560.5 475.942C1561.45 475.942 1562.27 476.162 1562.96 476.602C1563.65 477.039 1564.18 477.676 1564.56 478.515C1564.93 479.353 1565.12 480.368 1565.11 481.561C1565.11 482.762 1564.93 483.788 1564.55 484.64C1564.18 485.493 1563.65 486.144 1562.96 486.595C1562.27 487.043 1561.45 487.266 1560.5 487.266ZM1560.5 485.109C1561.07 485.109 1561.53 484.82 1561.88 484.241C1562.23 483.658 1562.4 482.765 1562.4 481.561C1562.4 480.773 1562.32 480.123 1562.16 479.612C1562 479.097 1561.78 478.713 1561.49 478.461C1561.21 478.209 1560.88 478.083 1560.5 478.083C1559.93 478.083 1559.48 478.369 1559.13 478.941C1558.78 479.509 1558.61 480.382 1558.6 481.561C1558.6 482.36 1558.68 483.023 1558.83 483.548C1558.99 484.074 1559.21 484.466 1559.5 484.725C1559.79 484.981 1560.12 485.109 1560.5 485.109Z" fill="black"/>
<g id="mux_ALUSrc_2">
<mask id="path-19-inside-3_6_98" fill="white">
<path d="M1550 463L1579 477.709V503.917L1550 519V463Z"/>
</mask>
<path d="M1550 463L1579 477.709V503.917L1550 519V463Z" stroke="black" stroke-width="6" mask="url(#path-19-inside-3_6_98)"/>
</g>
<g id="mux_RegDst">
<mask id="path-20-inside-4_6_98" fill="white">
<path d="M943 636L972 650.709V676.917L943 692V636Z"/>
</mask>
<path d="M943 636L972 650.709V676.917L943 692V636Z" stroke="black" stroke-width="6" mask="url(#path-20-inside-4_6_98)"/>
</g>
<line id="wire_PC_Prime" x1="180.716" y1="450.259" x2="238.614" y2="450.161" stroke="black" stroke-width="3"/>
<line id="wire_PC_clock" x1="252.5" y1="426" x2="252.5" y2="400" stroke="black" stroke-width="3"/>
<line id="wire_IF_ID_Register_Clock" x1="523.5" y1="419" x2="523.5" y2="393" stroke="black" stroke-width="3"/>
<path id="box_ID_EX_Register" fill-rule="evenodd" clip-rule="evenodd" d="M893.357 417.582H893.412V896.941H861V417.582H861.418L861.366 417.5H893.409L893.357 417.582ZM864 893.941H890.412V422.27L877.388 443L864 421.691V893.941ZM877.388 437.362L887.93 420.582H866.846L877.388 437.362Z" fill="black"/>
<line id="wire_ID_EX_Register_Clock" x1="876.388" y1="419" x2="876.388" y2="393" stroke="black" stroke-width="3"/>
<path id="box_EX_MEM_Register" fill-rule="evenodd" clip-rule="evenodd" d="M1172.36 417.582H1172.41V896.941H1140V417.582H1140.42L1140.37 417.5H1172.41L1172.36 417.582ZM1143 893.941H1169.41V422.27L1156.39 443L1143 421.691V893.941ZM1156.39 437.362L1166.93 420.582H1145.85L1156.39 437.362Z" fill="black"/>
<line id="wire_EX_MEM_Register_Clock" x1="1155.39" y1="419" x2="1155.39" y2="393" stroke="black" stroke-width="3"/>
<path id="box_MEM_WB_Register" fill-rule="evenodd" clip-rule="evenodd" d="M1480.36 417.582H1480.41V896.941H1448V417.582H1448.42L1448.37 417.5H1480.41L1480.36 417.582ZM1451 893.941H1477.41V422.27L1464.39 443L1451 421.691V893.941ZM1464.39 437.362L1474.93 420.582H1453.85L1464.39 437.362Z" fill="black"/>
<line id="wire_MEM_WB_Register_Clock" x1="1463.39" y1="419" x2="1463.39" y2="393" stroke="black" stroke-width="3"/>
<g id="box_AdderPC">
<mask id="path-30-inside-5_6_98" fill="white">
<path d="M366 666L440 693.022V783.366L366 811V792.875V783.812V774.75V756.625V747.562L395.456 738.5L366 729.437V720.375V702.25V693.187V684.125V666Z"/>
</mask>
<path d="M366 666L440 693.022V783.366L366 811V792.875V783.812V774.75V756.625V747.562L395.456 738.5L366 729.437V720.375V702.25V693.187V684.125V666Z" stroke="black" stroke-width="6" mask="url(#path-30-inside-5_6_98)"/>
</g>
<g id="box_ALU">
<mask id="path-31-inside-6_6_98" fill="white">
<path d="M1051 425L1125 452.022V542.366L1051 570V551.875V542.812V533.75V515.625V506.562L1080.46 497.5L1051 488.437V479.375V461.25V452.187V443.125V425Z"/>
</mask>
<path d="M1051 425L1125 452.022V542.366L1051 570V551.875V542.812V533.75V515.625V506.562L1080.46 497.5L1051 488.437V479.375V461.25V452.187V443.125V425Z" stroke="black" stroke-width="6" mask="url(#path-31-inside-6_6_98)"/>
</g>
<path id="label_AdderPC" d="M419.926 742.457V734.744H422.073V742.457H419.926ZM417.14 739.676V737.529H424.853V739.676H417.14Z" fill="black"/>
<g id="box_AdderPC_Branch">
<mask id="path-33-inside-7_6_98" fill="white">
<path d="M1065 772L1125 793.99V867.512L1065 890V875.25V867.875V860.5V845.75V838.375L1088.88 831L1065 823.625V816.25V801.5V794.125V786.75V772Z"/>
</mask>
<path d="M1065 772L1125 793.99V867.512L1065 890V875.25V867.875V860.5V845.75V838.375L1088.88 831L1065 823.625V816.25V801.5V794.125V786.75V772Z" stroke="black" stroke-width="6" mask="url(#path-33-inside-7_6_98)"/>
</g>
<path id="label_AdderPC_Branch" d="M1108.43 836.457V828.744H1110.57V836.457H1108.43ZM1105.64 833.676V831.529H1113.35V833.676H1105.64Z" fill="black"/>
<path id="label_&#60;&#60;2" d="M997.208 798.685V796.469L1004.92 793.231V795.654L999.829 797.556L999.909 797.439V797.721L999.829 797.599L1004.92 799.506V801.924L997.208 798.685ZM1007.51 798.685V796.469L1015.22 793.231V795.654L1010.13 797.556L1010.21 797.439V797.721L1010.13 797.599L1015.22 799.506V801.924L1007.51 798.685ZM1017.32 803V801.104L1021.3 797.62C1021.6 797.35 1021.85 797.103 1022.06 796.88C1022.27 796.652 1022.43 796.425 1022.54 796.198C1022.65 795.967 1022.7 795.717 1022.7 795.447C1022.7 795.145 1022.64 794.887 1022.51 794.674C1022.38 794.458 1022.2 794.291 1021.96 794.174C1021.73 794.056 1021.47 793.998 1021.17 793.998C1020.87 793.998 1020.6 794.06 1020.38 794.184C1020.15 794.305 1019.97 794.481 1019.84 794.712C1019.72 794.942 1019.66 795.223 1019.66 795.553H1017.16C1017.16 794.811 1017.33 794.17 1017.66 793.63C1017.99 793.091 1018.46 792.675 1019.07 792.384C1019.67 792.089 1020.38 791.942 1021.18 791.942C1022.01 791.942 1022.73 792.08 1023.34 792.357C1023.95 792.634 1024.42 793.021 1024.76 793.518C1025.09 794.012 1025.26 794.586 1025.26 795.239C1025.26 795.654 1025.18 796.066 1025.01 796.475C1024.84 796.883 1024.54 797.334 1024.11 797.828C1023.68 798.321 1023.07 798.913 1022.28 799.602L1020.97 800.805V800.875H1025.39V803H1017.32Z" fill="black"/>
<path id="label_ALU" d="M1109 508.313L1109 511.146L1098.09 507.466L1098.09 503.955L1109 500.275L1109 503.108L1100.84 505.671L1100.84 505.756L1109 508.313ZM1104.71 508.691L1104.71 502.768L1106.71 502.768L1106.71 508.691L1104.71 508.691ZM1109 499.1L1098.09 499.1L1098.09 496.463L1106.86 496.463L1106.86 491.925L1109 491.925L1109 499.1ZM1098.09 483.96L1098.09 481.329L1105.13 481.329C1105.94 481.329 1106.65 481.522 1107.25 481.91C1107.85 482.297 1108.32 482.836 1108.65 483.529C1108.98 484.221 1109.14 485.026 1109.14 485.942C1109.14 486.869 1108.98 487.678 1108.65 488.371C1108.32 489.063 1107.85 489.601 1107.25 489.985C1106.65 490.368 1105.94 490.56 1105.13 490.56L1098.09 490.56L1098.09 487.923L1104.9 487.923C1105.27 487.923 1105.61 487.842 1105.91 487.678C1106.2 487.511 1106.43 487.279 1106.6 486.981C1106.76 486.682 1106.85 486.336 1106.85 485.942C1106.85 485.548 1106.76 485.203 1106.6 484.908C1106.43 484.61 1106.2 484.378 1105.91 484.211C1105.61 484.044 1105.27 483.96 1104.9 483.96L1098.09 483.96Z" fill="black"/>
<path id="label_AdderPC_4" d="M317.5 783.189V781.133L321.969 774.091H323.796V776.882H322.736L320.121 781.026V781.112H326.593V783.189H317.5ZM322.768 785V782.56L322.822 781.66V774.091H325.288V785H322.768Z" fill="black"/>
<path id="wire_PCPlus4F" d="M454.484 875H510" stroke="black" stroke-width="3"/>
<path id="wire_InstrF" d="M482 462.5H509" stroke="black" stroke-width="3"/>
<path id="label_RF_A1" d="M664.928 463H662.094L665.775 452.091H669.285L672.966 463H670.132L667.57 454.839H667.484L664.928 463ZM664.549 458.707H670.473V460.71H664.549V458.707ZM678.65 452.091V463H676.019V454.552H675.955L673.516 456.043V453.763L676.206 452.091H678.65Z" fill="black"/>
<path id="label_bitValues" d="M598.049 452V450.807L601.741 446.982C602.135 446.567 602.46 446.203 602.716 445.89C602.975 445.574 603.168 445.274 603.296 444.99C603.424 444.706 603.488 444.404 603.488 444.085C603.488 443.722 603.403 443.41 603.232 443.147C603.062 442.881 602.829 442.676 602.534 442.534C602.24 442.389 601.908 442.316 601.538 442.316C601.148 442.316 600.807 442.396 600.516 442.556C600.224 442.716 600.001 442.941 599.844 443.232C599.688 443.523 599.61 443.864 599.61 444.255H598.039C598.039 443.591 598.191 443.01 598.497 442.513C598.802 442.016 599.221 441.631 599.754 441.357C600.287 441.08 600.892 440.942 601.57 440.942C602.256 440.942 602.859 441.078 603.381 441.352C603.907 441.622 604.317 441.991 604.612 442.46C604.907 442.925 605.054 443.451 605.054 444.037C605.054 444.441 604.978 444.837 604.825 445.224C604.676 445.612 604.415 446.043 604.042 446.519C603.669 446.991 603.151 447.565 602.487 448.239L600.319 450.509V450.588H605.23V452H598.049ZM610.849 452.149C610.182 452.149 609.582 452.021 609.049 451.766C608.52 451.506 608.097 451.151 607.781 450.7C607.465 450.249 607.297 449.734 607.275 449.156H608.873C608.912 449.624 609.12 450.01 609.496 450.311C609.873 450.613 610.324 450.764 610.849 450.764C611.268 450.764 611.64 450.668 611.963 450.477C612.289 450.281 612.545 450.013 612.73 449.672C612.918 449.331 613.012 448.942 613.012 448.506C613.012 448.062 612.916 447.666 612.724 447.318C612.533 446.97 612.268 446.696 611.931 446.498C611.597 446.299 611.213 446.197 610.78 446.194C610.45 446.194 610.118 446.251 609.784 446.364C609.45 446.478 609.18 446.627 608.974 446.812L607.467 446.588L608.08 441.091H614.077V442.502H609.449L609.102 445.555H609.166C609.379 445.349 609.662 445.176 610.013 445.038C610.368 444.9 610.748 444.83 611.153 444.83C611.817 444.83 612.408 444.988 612.927 445.304C613.449 445.62 613.859 446.052 614.157 446.599C614.459 447.142 614.608 447.767 614.605 448.474C614.608 449.18 614.449 449.811 614.125 450.365C613.806 450.919 613.362 451.355 612.794 451.675C612.229 451.991 611.581 452.149 610.849 452.149ZM617.621 450.647C617.33 450.647 617.079 450.544 616.87 450.338C616.66 450.129 616.556 449.876 616.556 449.582C616.556 449.29 616.66 449.042 616.87 448.836C617.079 448.626 617.33 448.522 617.621 448.522C617.912 448.522 618.163 448.626 618.372 448.836C618.582 449.042 618.686 449.29 618.686 449.582C618.686 449.777 618.637 449.956 618.537 450.12C618.441 450.279 618.313 450.407 618.154 450.503C617.994 450.599 617.816 450.647 617.621 450.647ZM617.621 445.182C617.33 445.182 617.079 445.079 616.87 444.873C616.66 444.663 616.556 444.411 616.556 444.116C616.556 443.825 616.66 443.577 616.87 443.371C617.079 443.161 617.33 443.056 617.621 443.056C617.912 443.056 618.163 443.161 618.372 443.371C618.582 443.577 618.686 443.825 618.686 444.116C618.686 444.312 618.637 444.491 618.537 444.654C618.441 444.814 618.313 444.942 618.154 445.038C617.994 445.134 617.816 445.182 617.621 445.182ZM620.798 452V450.807L624.49 446.982C624.884 446.567 625.209 446.203 625.465 445.89C625.724 445.574 625.917 445.274 626.045 444.99C626.173 444.706 626.237 444.404 626.237 444.085C626.237 443.722 626.152 443.41 625.981 443.147C625.811 442.881 625.578 442.676 625.283 442.534C624.989 442.389 624.657 442.316 624.287 442.316C623.897 442.316 623.556 442.396 623.265 442.556C622.973 442.716 622.75 442.941 622.593 443.232C622.437 443.523 622.359 443.864 622.359 444.255H620.788C620.788 443.591 620.94 443.01 621.246 442.513C621.551 442.016 621.97 441.631 622.503 441.357C623.036 441.08 623.641 440.942 624.319 440.942C625.005 440.942 625.608 441.078 626.13 441.352C626.656 441.622 627.066 441.991 627.361 442.46C627.656 442.925 627.803 443.451 627.803 444.037C627.803 444.441 627.727 444.837 627.574 445.224C627.425 445.612 627.164 446.043 626.791 446.519C626.418 446.991 625.9 447.565 625.236 448.239L623.068 450.509V450.588H627.979V452H620.798ZM634.136 441.091V452H632.485V442.742H632.421L629.811 444.447V442.87L632.533 441.091H634.136Z" fill="black"/>
<path id="label_bitValues2" d="M598.049 496V494.807L601.741 490.982C602.135 490.567 602.46 490.203 602.716 489.89C602.975 489.574 603.168 489.274 603.296 488.99C603.424 488.706 603.488 488.404 603.488 488.085C603.488 487.722 603.403 487.41 603.232 487.147C603.062 486.881 602.829 486.676 602.534 486.534C602.24 486.389 601.908 486.316 601.538 486.316C601.148 486.316 600.807 486.396 600.516 486.556C600.224 486.716 600.001 486.941 599.844 487.232C599.688 487.523 599.61 487.864 599.61 488.255H598.039C598.039 487.591 598.191 487.01 598.497 486.513C598.802 486.016 599.221 485.631 599.754 485.357C600.287 485.08 600.892 484.942 601.57 484.942C602.256 484.942 602.859 485.078 603.381 485.352C603.907 485.622 604.317 485.991 604.612 486.46C604.907 486.925 605.054 487.451 605.054 488.037C605.054 488.441 604.978 488.837 604.825 489.224C604.676 489.612 604.415 490.043 604.042 490.519C603.669 490.991 603.151 491.565 602.487 492.239L600.319 494.509V494.588H605.23V496H598.049ZM611.047 496.181C610.205 496.178 609.486 495.956 608.889 495.515C608.293 495.075 607.836 494.434 607.52 493.592C607.204 492.751 607.046 491.737 607.046 490.551C607.046 489.368 607.204 488.358 607.52 487.52C607.84 486.682 608.298 486.043 608.895 485.602C609.495 485.162 610.212 484.942 611.047 484.942C611.881 484.942 612.597 485.164 613.193 485.608C613.79 486.048 614.246 486.687 614.562 487.525C614.882 488.36 615.042 489.368 615.042 490.551C615.042 491.74 614.884 492.756 614.567 493.598C614.251 494.436 613.795 495.077 613.199 495.521C612.602 495.961 611.885 496.181 611.047 496.181ZM611.047 494.759C611.785 494.759 612.362 494.398 612.778 493.678C613.197 492.957 613.406 491.914 613.406 490.551C613.406 489.645 613.31 488.88 613.119 488.255C612.93 487.626 612.659 487.151 612.304 486.827C611.952 486.501 611.533 486.337 611.047 486.337C610.311 486.337 609.734 486.7 609.315 487.424C608.896 488.148 608.685 489.191 608.681 490.551C608.681 491.46 608.776 492.229 608.964 492.857C609.156 493.482 609.427 493.956 609.779 494.279C610.13 494.599 610.553 494.759 611.047 494.759ZM618.002 494.647C617.711 494.647 617.46 494.544 617.251 494.338C617.041 494.129 616.937 493.876 616.937 493.582C616.937 493.29 617.041 493.042 617.251 492.836C617.46 492.626 617.711 492.522 618.002 492.522C618.293 492.522 618.543 492.626 618.753 492.836C618.962 493.042 619.067 493.29 619.067 493.582C619.067 493.777 619.017 493.956 618.918 494.12C618.822 494.279 618.694 494.407 618.535 494.503C618.375 494.599 618.197 494.647 618.002 494.647ZM618.002 489.182C617.711 489.182 617.46 489.079 617.251 488.873C617.041 488.663 616.937 488.411 616.937 488.116C616.937 487.825 617.041 487.577 617.251 487.371C617.46 487.161 617.711 487.056 618.002 487.056C618.293 487.056 618.543 487.161 618.753 487.371C618.962 487.577 619.067 487.825 619.067 488.116C619.067 488.312 619.017 488.491 618.918 488.654C618.822 488.814 618.694 488.942 618.535 489.038C618.375 489.134 618.197 489.182 618.002 489.182ZM625.318 485.091V496H623.667V486.742H623.603L620.993 488.447V486.87L623.715 485.091H625.318ZM632.078 496.149C631.591 496.142 631.112 496.053 630.639 495.883C630.171 495.712 629.745 495.428 629.361 495.031C628.978 494.633 628.67 494.098 628.44 493.427C628.212 492.756 628.099 491.918 628.099 490.913C628.099 489.961 628.193 489.116 628.381 488.377C628.573 487.639 628.848 487.016 629.207 486.508C629.565 485.996 629.998 485.608 630.506 485.341C631.014 485.075 631.584 484.942 632.216 484.942C632.866 484.942 633.443 485.07 633.947 485.325C634.452 485.581 634.86 485.934 635.172 486.385C635.489 486.836 635.689 487.349 635.774 487.925H634.15C634.04 487.47 633.821 487.099 633.495 486.811C633.168 486.524 632.742 486.38 632.216 486.38C631.417 486.38 630.794 486.728 630.347 487.424C629.903 488.12 629.679 489.088 629.675 490.327H629.755C629.943 490.018 630.174 489.755 630.448 489.539C630.725 489.319 631.034 489.15 631.375 489.033C631.719 488.912 632.081 488.852 632.461 488.852C633.093 488.852 633.665 489.006 634.176 489.315C634.691 489.62 635.101 490.043 635.407 490.583C635.712 491.123 635.865 491.74 635.865 492.436C635.865 493.132 635.707 493.763 635.391 494.327C635.078 494.892 634.638 495.339 634.07 495.67C633.502 495.996 632.838 496.156 632.078 496.149ZM632.072 494.764C632.491 494.764 632.866 494.661 633.196 494.455C633.527 494.249 633.788 493.972 633.979 493.624C634.171 493.276 634.267 492.887 634.267 492.458C634.267 492.039 634.173 491.657 633.985 491.312C633.8 490.968 633.544 490.695 633.218 490.492C632.894 490.29 632.525 490.189 632.11 490.189C631.794 490.189 631.501 490.249 631.231 490.37C630.964 490.49 630.73 490.657 630.528 490.87C630.325 491.083 630.165 491.328 630.048 491.605C629.935 491.879 629.878 492.168 629.878 492.474C629.878 492.882 629.972 493.26 630.16 493.608C630.352 493.956 630.613 494.237 630.943 494.45C631.277 494.659 631.653 494.764 632.072 494.764Z" fill="black"/>
<path id="label_bitValues3" d="M598.049 643V641.807L601.741 637.982C602.135 637.567 602.46 637.203 602.716 636.89C602.975 636.574 603.168 636.274 603.296 635.99C603.424 635.706 603.488 635.404 603.488 635.085C603.488 634.722 603.403 634.41 603.232 634.147C603.062 633.881 602.829 633.676 602.534 633.534C602.24 633.389 601.908 633.316 601.538 633.316C601.148 633.316 600.807 633.396 600.516 633.556C600.224 633.716 600.001 633.941 599.844 634.232C599.688 634.523 599.61 634.864 599.61 635.255H598.039C598.039 634.591 598.191 634.01 598.497 633.513C598.802 633.016 599.221 632.631 599.754 632.357C600.287 632.08 600.892 631.942 601.57 631.942C602.256 631.942 602.859 632.078 603.381 632.352C603.907 632.622 604.317 632.991 604.612 633.46C604.907 633.925 605.054 634.451 605.054 635.037C605.054 635.441 604.978 635.837 604.825 636.224C604.676 636.612 604.415 637.043 604.042 637.519C603.669 637.991 603.151 638.565 602.487 639.239L600.319 641.509V641.588H605.23V643H598.049ZM611.047 643.181C610.205 643.178 609.486 642.956 608.889 642.515C608.293 642.075 607.836 641.434 607.52 640.592C607.204 639.751 607.046 638.737 607.046 637.551C607.046 636.368 607.204 635.358 607.52 634.52C607.84 633.682 608.298 633.043 608.895 632.602C609.495 632.162 610.212 631.942 611.047 631.942C611.881 631.942 612.597 632.164 613.193 632.608C613.79 633.048 614.246 633.687 614.562 634.525C614.882 635.36 615.042 636.368 615.042 637.551C615.042 638.74 614.884 639.756 614.567 640.598C614.251 641.436 613.795 642.077 613.199 642.521C612.602 642.961 611.885 643.181 611.047 643.181ZM611.047 641.759C611.785 641.759 612.362 641.398 612.778 640.678C613.197 639.957 613.406 638.914 613.406 637.551C613.406 636.645 613.31 635.88 613.119 635.255C612.93 634.626 612.659 634.151 612.304 633.827C611.952 633.501 611.533 633.337 611.047 633.337C610.311 633.337 609.734 633.7 609.315 634.424C608.896 635.148 608.685 636.191 608.681 637.551C608.681 638.46 608.776 639.229 608.964 639.857C609.156 640.482 609.427 640.956 609.779 641.279C610.13 641.599 610.553 641.759 611.047 641.759ZM618.002 641.647C617.711 641.647 617.46 641.544 617.251 641.338C617.041 641.129 616.937 640.876 616.937 640.582C616.937 640.29 617.041 640.042 617.251 639.836C617.46 639.626 617.711 639.522 618.002 639.522C618.293 639.522 618.543 639.626 618.753 639.836C618.962 640.042 619.067 640.29 619.067 640.582C619.067 640.777 619.017 640.956 618.918 641.12C618.822 641.279 618.694 641.407 618.535 641.503C618.375 641.599 618.197 641.647 618.002 641.647ZM618.002 636.182C617.711 636.182 617.46 636.079 617.251 635.873C617.041 635.663 616.937 635.411 616.937 635.116C616.937 634.825 617.041 634.577 617.251 634.371C617.46 634.161 617.711 634.056 618.002 634.056C618.293 634.056 618.543 634.161 618.753 634.371C618.962 634.577 619.067 634.825 619.067 635.116C619.067 635.312 619.017 635.491 618.918 635.654C618.822 635.814 618.694 635.942 618.535 636.038C618.375 636.134 618.197 636.182 618.002 636.182ZM625.318 632.091V643H623.667V633.742H623.603L620.993 635.447V633.87L623.715 632.091H625.318ZM632.078 643.149C631.591 643.142 631.112 643.053 630.639 642.883C630.171 642.712 629.745 642.428 629.361 642.031C628.978 641.633 628.67 641.098 628.44 640.427C628.212 639.756 628.099 638.918 628.099 637.913C628.099 636.961 628.193 636.116 628.381 635.377C628.573 634.639 628.848 634.016 629.207 633.508C629.565 632.996 629.998 632.608 630.506 632.341C631.014 632.075 631.584 631.942 632.216 631.942C632.866 631.942 633.443 632.07 633.947 632.325C634.452 632.581 634.86 632.934 635.172 633.385C635.489 633.836 635.689 634.349 635.774 634.925H634.15C634.04 634.47 633.821 634.099 633.495 633.811C633.168 633.524 632.742 633.38 632.216 633.38C631.417 633.38 630.794 633.728 630.347 634.424C629.903 635.12 629.679 636.088 629.675 637.327H629.755C629.943 637.018 630.174 636.755 630.448 636.539C630.725 636.319 631.034 636.15 631.375 636.033C631.719 635.912 632.081 635.852 632.461 635.852C633.093 635.852 633.665 636.006 634.176 636.315C634.691 636.62 635.101 637.043 635.407 637.583C635.712 638.123 635.865 638.74 635.865 639.436C635.865 640.132 635.707 640.763 635.391 641.327C635.078 641.892 634.638 642.339 634.07 642.67C633.502 642.996 632.838 643.156 632.078 643.149ZM632.072 641.764C632.491 641.764 632.866 641.661 633.196 641.455C633.527 641.249 633.788 640.972 633.979 640.624C634.171 640.276 634.267 639.887 634.267 639.458C634.267 639.039 634.173 638.657 633.985 638.312C633.8 637.968 633.544 637.695 633.218 637.492C632.894 637.29 632.525 637.189 632.11 637.189C631.794 637.189 631.501 637.249 631.231 637.37C630.964 637.49 630.73 637.657 630.528 637.87C630.325 638.083 630.165 638.328 630.048 638.605C629.935 638.879 629.878 639.168 629.878 639.474C629.878 639.882 629.972 640.26 630.16 640.608C630.352 640.956 630.613 641.237 630.943 641.45C631.277 641.659 631.653 641.764 632.072 641.764Z" fill="black"/>
<path id="label_bitValues4" d="M602.188 664.091V675H600.537V665.742H600.473L597.863 667.447V665.87L600.585 664.091H602.188ZM608.74 675.149C608.072 675.149 607.472 675.021 606.94 674.766C606.411 674.506 605.988 674.151 605.672 673.7C605.356 673.249 605.187 672.734 605.166 672.156H606.764C606.803 672.624 607.011 673.01 607.387 673.311C607.763 673.613 608.214 673.764 608.74 673.764C609.159 673.764 609.53 673.668 609.853 673.477C610.18 673.281 610.436 673.013 610.62 672.672C610.809 672.331 610.903 671.942 610.903 671.506C610.903 671.062 610.807 670.666 610.615 670.318C610.423 669.97 610.159 669.696 609.821 669.498C609.488 669.299 609.104 669.197 608.671 669.194C608.341 669.194 608.009 669.251 607.675 669.364C607.341 669.478 607.071 669.627 606.865 669.812L605.358 669.588L605.97 664.091H611.968V665.502H607.339L606.993 668.555H607.057C607.27 668.349 607.552 668.176 607.904 668.038C608.259 667.9 608.639 667.83 609.044 667.83C609.708 667.83 610.299 667.988 610.817 668.304C611.339 668.62 611.75 669.052 612.048 669.599C612.35 670.142 612.499 670.767 612.495 671.474C612.499 672.18 612.339 672.811 612.016 673.365C611.696 673.919 611.252 674.355 610.684 674.675C610.12 674.991 609.472 675.149 608.74 675.149ZM615.512 673.647C615.22 673.647 614.97 673.544 614.761 673.338C614.551 673.129 614.446 672.876 614.446 672.582C614.446 672.29 614.551 672.042 614.761 671.836C614.97 671.626 615.22 671.522 615.512 671.522C615.803 671.522 616.053 671.626 616.263 671.836C616.472 672.042 616.577 672.29 616.577 672.582C616.577 672.777 616.527 672.956 616.428 673.12C616.332 673.279 616.204 673.407 616.044 673.503C615.884 673.599 615.707 673.647 615.512 673.647ZM615.512 668.182C615.22 668.182 614.97 668.079 614.761 667.873C614.551 667.663 614.446 667.411 614.446 667.116C614.446 666.825 614.551 666.577 614.761 666.371C614.97 666.161 615.22 666.056 615.512 666.056C615.803 666.056 616.053 666.161 616.263 666.371C616.472 666.577 616.577 666.825 616.577 667.116C616.577 667.312 616.527 667.491 616.428 667.654C616.332 667.814 616.204 667.942 616.044 668.038C615.884 668.134 615.707 668.182 615.512 668.182ZM622.828 664.091V675H621.177V665.742H621.113L618.503 667.447V665.87L621.225 664.091H622.828ZM629.918 664.091V675H628.266V665.742H628.203L625.592 667.447V665.87L628.314 664.091H629.918Z" fill="black"/>
<path id="label_bitValues5" d="M602.188 797.091V808H600.537V798.742H600.473L597.863 800.447V798.87L600.585 797.091H602.188ZM608.74 808.149C608.072 808.149 607.472 808.021 606.94 807.766C606.411 807.506 605.988 807.151 605.672 806.7C605.356 806.249 605.187 805.734 605.166 805.156H606.764C606.803 805.624 607.011 806.01 607.387 806.311C607.763 806.613 608.214 806.764 608.74 806.764C609.159 806.764 609.53 806.668 609.853 806.477C610.18 806.281 610.436 806.013 610.62 805.672C610.809 805.331 610.903 804.942 610.903 804.506C610.903 804.062 610.807 803.666 610.615 803.318C610.423 802.97 610.159 802.696 609.821 802.498C609.488 802.299 609.104 802.197 608.671 802.194C608.341 802.194 608.009 802.251 607.675 802.364C607.341 802.478 607.071 802.627 606.865 802.812L605.358 802.588L605.97 797.091H611.968V798.502H607.339L606.993 801.555H607.057C607.27 801.349 607.552 801.176 607.904 801.038C608.259 800.9 608.639 800.83 609.044 800.83C609.708 800.83 610.299 800.988 610.817 801.304C611.339 801.62 611.75 802.052 612.048 802.599C612.35 803.142 612.499 803.767 612.495 804.474C612.499 805.18 612.339 805.811 612.016 806.365C611.696 806.919 611.252 807.355 610.684 807.675C610.12 807.991 609.472 808.149 608.74 808.149ZM615.512 806.647C615.22 806.647 614.97 806.544 614.761 806.338C614.551 806.129 614.446 805.876 614.446 805.582C614.446 805.29 614.551 805.042 614.761 804.836C614.97 804.626 615.22 804.522 615.512 804.522C615.803 804.522 616.053 804.626 616.263 804.836C616.472 805.042 616.577 805.29 616.577 805.582C616.577 805.777 616.527 805.956 616.428 806.12C616.332 806.279 616.204 806.407 616.044 806.503C615.884 806.599 615.707 806.647 615.512 806.647ZM615.512 801.182C615.22 801.182 614.97 801.079 614.761 800.873C614.551 800.663 614.446 800.411 614.446 800.116C614.446 799.825 614.551 799.577 614.761 799.371C614.97 799.161 615.22 799.056 615.512 799.056C615.803 799.056 616.053 799.161 616.263 799.371C616.472 799.577 616.577 799.825 616.577 800.116C616.577 800.312 616.527 800.491 616.428 800.654C616.332 800.814 616.204 800.942 616.044 801.038C615.884 801.134 615.707 801.182 615.512 801.182ZM622.487 808.181C621.645 808.178 620.926 807.956 620.33 807.515C619.733 807.075 619.277 806.434 618.961 805.592C618.645 804.751 618.487 803.737 618.487 802.551C618.487 801.368 618.645 800.358 618.961 799.52C619.28 798.682 619.738 798.043 620.335 797.602C620.935 797.162 621.652 796.942 622.487 796.942C623.321 796.942 624.037 797.164 624.634 797.608C625.23 798.048 625.687 798.687 626.003 799.525C626.322 800.36 626.482 801.368 626.482 802.551C626.482 803.74 626.324 804.756 626.008 805.598C625.692 806.436 625.236 807.077 624.639 807.521C624.042 807.961 623.325 808.181 622.487 808.181ZM622.487 806.759C623.226 806.759 623.803 806.398 624.218 805.678C624.637 804.957 624.847 803.914 624.847 802.551C624.847 801.645 624.751 800.88 624.559 800.255C624.371 799.626 624.099 799.151 623.744 798.827C623.392 798.501 622.973 798.337 622.487 798.337C621.752 798.337 621.175 798.7 620.756 799.424C620.337 800.148 620.125 801.191 620.122 802.551C620.122 803.46 620.216 804.229 620.404 804.857C620.596 805.482 620.868 805.956 621.219 806.279C621.571 806.599 621.993 806.759 622.487 806.759ZM632.17 808.181C631.328 808.178 630.609 807.956 630.012 807.515C629.416 807.075 628.959 806.434 628.643 805.592C628.327 804.751 628.169 803.737 628.169 802.551C628.169 801.368 628.327 800.358 628.643 799.52C628.963 798.682 629.421 798.043 630.018 797.602C630.618 797.162 631.335 796.942 632.17 796.942C633.004 796.942 633.72 797.164 634.316 797.608C634.913 798.048 635.369 798.687 635.685 799.525C636.005 800.36 636.165 801.368 636.165 802.551C636.165 803.74 636.007 804.756 635.691 805.598C635.374 806.436 634.918 807.077 634.322 807.521C633.725 807.961 633.008 808.181 632.17 808.181ZM632.17 806.759C632.908 806.759 633.485 806.398 633.901 805.678C634.32 804.957 634.529 803.914 634.529 802.551C634.529 801.645 634.433 800.88 634.242 800.255C634.053 799.626 633.782 799.151 633.427 798.827C633.075 798.501 632.656 798.337 632.17 798.337C631.434 798.337 630.857 798.7 630.438 799.424C630.019 800.148 629.808 801.191 629.805 802.551C629.805 803.46 629.899 804.229 630.087 804.857C630.279 805.482 630.55 805.956 630.902 806.279C631.253 806.599 631.676 806.759 632.17 806.759Z" fill="black"/>
<path id="label_RF_RD1" d="M792.153 461V450.091H796.66C797.476 450.091 798.181 450.238 798.774 450.533C799.371 450.824 799.831 451.243 800.154 451.79C800.477 452.333 800.639 452.978 800.639 453.724C800.639 454.48 800.474 455.123 800.143 455.652C799.813 456.178 799.344 456.579 798.737 456.856C798.13 457.129 797.411 457.266 796.58 457.266H793.73V455.189H796.09C796.487 455.189 796.819 455.137 797.086 455.034C797.356 454.928 797.56 454.768 797.698 454.555C797.837 454.338 797.906 454.061 797.906 453.724C797.906 453.386 797.837 453.108 797.698 452.887C797.56 452.664 797.356 452.497 797.086 452.387C796.816 452.273 796.484 452.216 796.09 452.216H794.79V461H792.153ZM798.295 456.014L801.012 461H798.135L795.472 456.014H798.295ZM806.117 461H802.085V450.091H806.112C807.223 450.091 808.18 450.309 808.983 450.746C809.789 451.179 810.411 451.804 810.847 452.621C811.284 453.434 811.503 454.407 811.503 455.54C811.503 456.676 811.284 457.653 810.847 458.47C810.414 459.287 809.794 459.913 808.988 460.35C808.182 460.783 807.225 461 806.117 461ZM804.722 458.752H806.016C806.627 458.752 807.144 458.649 807.566 458.443C807.992 458.234 808.314 457.895 808.53 457.426C808.75 456.953 808.86 456.325 808.86 455.54C808.86 454.755 808.75 454.13 808.53 453.665C808.31 453.196 807.985 452.859 807.555 452.653C807.129 452.444 806.604 452.339 805.979 452.339H804.722V458.752ZM818.065 450.091V461H815.434V452.552H815.37L812.93 454.043V451.763L815.62 450.091H818.065Z" fill="black"/>
<path id="label_RF_WE3" d="M754.826 441L751.652 430.091H754.565L756.211 437.239H756.302L758.182 430.091H760.558L762.438 437.255H762.529L764.18 430.091H767.088L763.919 441H761.378L759.413 434.384H759.327L757.362 441H754.826ZM768.178 441V430.091H775.784V432.232H770.814V434.469H775.395V436.616H770.814V438.859H775.784V441H768.178ZM781.564 441.149C780.733 441.149 779.996 441.007 779.353 440.723C778.714 440.435 778.21 440.039 777.84 439.535C777.471 439.031 777.283 438.45 777.276 437.793H779.928C779.939 438.031 780.015 438.243 780.157 438.427C780.299 438.608 780.493 438.75 780.738 438.853C780.983 438.956 781.262 439.008 781.574 439.008C781.887 439.008 782.162 438.953 782.4 438.843C782.641 438.729 782.83 438.575 782.965 438.379C783.1 438.18 783.165 437.953 783.162 437.697C783.165 437.442 783.092 437.214 782.943 437.016C782.794 436.817 782.583 436.662 782.309 436.552C782.04 436.442 781.72 436.387 781.351 436.387H780.291V434.512H781.351C781.674 434.512 781.958 434.459 782.203 434.352C782.451 434.246 782.645 434.097 782.784 433.905C782.922 433.71 782.989 433.486 782.986 433.234C782.989 432.989 782.931 432.774 782.81 432.589C782.693 432.401 782.528 432.255 782.315 432.152C782.105 432.049 781.862 431.998 781.585 431.998C781.294 431.998 781.029 432.049 780.791 432.152C780.557 432.255 780.371 432.401 780.232 432.589C780.094 432.777 780.021 432.996 780.014 433.244H777.494C777.501 432.594 777.682 432.023 778.037 431.529C778.393 431.032 778.875 430.643 779.486 430.363C780.101 430.082 780.8 429.942 781.585 429.942C782.366 429.942 783.053 430.078 783.646 430.352C784.239 430.625 784.701 430.998 785.031 431.471C785.362 431.939 785.527 432.47 785.527 433.063C785.53 433.678 785.33 434.184 784.925 434.581C784.524 434.979 784.007 435.224 783.375 435.316V435.402C784.22 435.501 784.857 435.775 785.287 436.222C785.72 436.669 785.935 437.229 785.932 437.9C785.932 438.532 785.745 439.093 785.372 439.583C785.003 440.07 784.488 440.453 783.828 440.734C783.171 441.011 782.416 441.149 781.564 441.149Z" fill="black"/>
<path id="label_RF_RD2" d="M794.599 499V488.091H799.105C799.922 488.091 800.627 488.238 801.22 488.533C801.816 488.824 802.276 489.243 802.599 489.79C802.922 490.333 803.084 490.978 803.084 491.724C803.084 492.48 802.919 493.123 802.589 493.652C802.258 494.178 801.79 494.579 801.182 494.856C800.575 495.129 799.856 495.266 799.025 495.266H796.175V493.189H798.535C798.933 493.189 799.265 493.137 799.531 493.034C799.801 492.928 800.005 492.768 800.144 492.555C800.282 492.338 800.351 492.061 800.351 491.724C800.351 491.386 800.282 491.108 800.144 490.887C800.005 490.664 799.801 490.497 799.531 490.387C799.261 490.273 798.929 490.216 798.535 490.216H797.235V499H794.599ZM800.74 494.014L803.457 499H800.58L797.917 494.014H800.74ZM808.563 499H804.53V488.091H808.557C809.669 488.091 810.626 488.309 811.428 488.746C812.234 489.179 812.856 489.804 813.293 490.621C813.729 491.434 813.948 492.407 813.948 493.54C813.948 494.676 813.729 495.653 813.293 496.47C812.859 497.287 812.24 497.913 811.434 498.35C810.628 498.783 809.67 499 808.563 499ZM807.167 496.752H808.461C809.072 496.752 809.589 496.649 810.011 496.443C810.438 496.234 810.759 495.895 810.976 495.426C811.196 494.953 811.306 494.325 811.306 493.54C811.306 492.755 811.196 492.13 810.976 491.665C810.755 491.196 810.43 490.859 810.001 490.653C809.575 490.444 809.049 490.339 808.424 490.339H807.167V496.752ZM815.466 499V497.104L819.445 493.62C819.743 493.35 819.997 493.103 820.207 492.88C820.416 492.652 820.576 492.425 820.686 492.198C820.796 491.967 820.851 491.717 820.851 491.447C820.851 491.145 820.786 490.887 820.654 490.674C820.523 490.458 820.342 490.291 820.111 490.174C819.88 490.056 819.615 489.998 819.317 489.998C819.015 489.998 818.751 490.06 818.523 490.184C818.296 490.305 818.119 490.481 817.991 490.712C817.867 490.942 817.804 491.223 817.804 491.553H815.306C815.306 490.811 815.473 490.17 815.807 489.63C816.141 489.091 816.609 488.675 817.213 488.384C817.82 488.089 818.525 487.942 819.328 487.942C820.155 487.942 820.874 488.08 821.485 488.357C822.096 488.634 822.568 489.021 822.902 489.518C823.239 490.012 823.408 490.586 823.408 491.239C823.408 491.654 823.325 492.066 823.158 492.475C822.991 492.883 822.691 493.334 822.258 493.828C821.828 494.321 821.217 494.913 820.425 495.602L819.12 496.805V496.875H823.541V499H815.466Z" fill="black"/>
<path id="label_RF_A2" d="M663.617 503H660.783L664.463 492.091H667.974L671.655 503H668.821L666.259 494.839H666.173L663.617 503ZM663.238 498.707H669.162V500.71H663.238V498.707ZM672.808 503V501.104L676.787 497.62C677.085 497.35 677.339 497.103 677.549 496.88C677.758 496.652 677.918 496.425 678.028 496.198C678.138 495.967 678.193 495.717 678.193 495.447C678.193 495.145 678.127 494.887 677.996 494.674C677.865 494.458 677.683 494.291 677.453 494.174C677.222 494.056 676.957 493.998 676.659 493.998C676.357 493.998 676.093 494.06 675.865 494.184C675.638 494.305 675.46 494.481 675.333 494.712C675.208 494.942 675.146 495.223 675.146 495.553H672.648C672.648 494.811 672.815 494.17 673.149 493.63C673.482 493.091 673.951 492.675 674.555 492.384C675.162 492.089 675.867 491.942 676.67 491.942C677.497 491.942 678.216 492.08 678.827 492.357C679.438 492.634 679.91 493.021 680.244 493.518C680.581 494.012 680.75 494.586 680.75 495.239C680.75 495.654 680.666 496.066 680.5 496.475C680.333 496.883 680.033 497.334 679.599 497.828C679.17 498.321 678.559 498.913 677.767 499.602L676.462 500.805V500.875H680.883V503H672.808Z" fill="black"/>
<path id="label_RF_A3" d="M664.397 532H661.563L665.244 521.091H668.754L672.435 532H669.601L667.039 523.839H666.954L664.397 532ZM664.019 527.707H669.942V529.71H664.019V527.707ZM677.738 532.149C676.907 532.149 676.17 532.007 675.527 531.723C674.888 531.435 674.383 531.039 674.014 530.535C673.645 530.031 673.457 529.45 673.45 528.793H676.102C676.113 529.031 676.189 529.243 676.331 529.427C676.473 529.608 676.667 529.75 676.912 529.853C677.157 529.956 677.436 530.008 677.748 530.008C678.061 530.008 678.336 529.953 678.574 529.843C678.815 529.729 679.004 529.575 679.138 529.379C679.273 529.18 679.339 528.953 679.336 528.697C679.339 528.442 679.266 528.214 679.117 528.016C678.968 527.817 678.757 527.662 678.483 527.552C678.213 527.442 677.894 527.387 677.524 527.387H676.464V525.512H677.524C677.848 525.512 678.132 525.459 678.377 525.352C678.625 525.246 678.819 525.097 678.957 524.905C679.096 524.71 679.163 524.486 679.16 524.234C679.163 523.989 679.105 523.774 678.984 523.589C678.867 523.401 678.702 523.255 678.489 523.152C678.279 523.049 678.036 522.998 677.759 522.998C677.468 522.998 677.203 523.049 676.965 523.152C676.731 523.255 676.544 523.401 676.406 523.589C676.267 523.777 676.195 523.996 676.187 524.244H673.668C673.675 523.594 673.856 523.023 674.211 522.529C674.566 522.032 675.049 521.643 675.66 521.363C676.274 521.082 676.974 520.942 677.759 520.942C678.54 520.942 679.227 521.078 679.82 521.352C680.413 521.625 680.875 521.998 681.205 522.471C681.535 522.939 681.701 523.47 681.701 524.063C681.704 524.678 681.504 525.184 681.099 525.581C680.697 525.979 680.181 526.224 679.549 526.316V526.402C680.394 526.501 681.031 526.775 681.461 527.222C681.894 527.669 682.109 528.229 682.105 528.9C682.105 529.532 681.919 530.093 681.546 530.583C681.177 531.07 680.662 531.453 680.001 531.734C679.344 532.011 678.59 532.149 677.738 532.149Z" fill="black"/>
<path id="label_RF_WB3" d="M657.475 571L654.3 560.091H657.214L658.86 567.239H658.95L660.831 560.091H663.206L665.087 567.255H665.177L666.828 560.091H669.737L666.567 571H664.027L662.061 564.384H661.976L660.01 571H657.475ZM670.826 571V560.091H675.375C676.192 560.091 676.875 560.206 677.426 560.437C677.98 560.668 678.395 560.991 678.672 561.407C678.953 561.822 679.093 562.303 679.093 562.85C679.093 563.266 679.006 563.637 678.832 563.963C678.658 564.287 678.418 564.555 678.113 564.768C677.808 564.981 677.454 565.13 677.053 565.215V565.322C677.493 565.343 677.9 565.462 678.273 565.679C678.649 565.895 678.951 566.197 679.178 566.584C679.406 566.968 679.519 567.422 679.519 567.948C679.519 568.534 679.37 569.058 679.072 569.519C678.774 569.977 678.342 570.339 677.777 570.606C677.213 570.869 676.527 571 675.721 571H670.826ZM673.463 568.875H675.093C675.665 568.875 676.085 568.766 676.355 568.55C676.629 568.333 676.765 568.031 676.765 567.644C676.765 567.364 676.7 567.122 676.568 566.92C676.437 566.714 676.25 566.556 676.009 566.446C675.768 566.332 675.478 566.275 675.141 566.275H673.463V568.875ZM673.463 564.576H674.922C675.21 564.576 675.466 564.528 675.689 564.432C675.913 564.336 676.087 564.198 676.211 564.017C676.339 563.836 676.403 563.617 676.403 563.362C676.403 562.996 676.274 562.708 676.014 562.499C675.755 562.289 675.405 562.184 674.965 562.184H673.463V564.576ZM684.915 571.149C684.084 571.149 683.347 571.007 682.705 570.723C682.065 570.435 681.561 570.039 681.192 569.535C680.823 569.031 680.634 568.45 680.627 567.793H683.28C683.291 568.031 683.367 568.243 683.509 568.427C683.651 568.608 683.845 568.75 684.09 568.853C684.335 568.956 684.613 569.008 684.926 569.008C685.238 569.008 685.514 568.953 685.752 568.843C685.993 568.729 686.181 568.575 686.316 568.379C686.451 568.18 686.517 567.953 686.513 567.697C686.517 567.442 686.444 567.214 686.295 567.016C686.146 566.817 685.934 566.662 685.661 566.552C685.391 566.442 685.072 566.387 684.702 566.387H683.642V564.512H684.702C685.025 564.512 685.309 564.459 685.554 564.352C685.803 564.246 685.997 564.097 686.135 563.905C686.274 563.71 686.341 563.486 686.337 563.234C686.341 562.989 686.282 562.774 686.162 562.589C686.045 562.401 685.879 562.255 685.666 562.152C685.457 562.049 685.214 561.998 684.937 561.998C684.645 561.998 684.381 562.049 684.143 562.152C683.909 562.255 683.722 562.401 683.584 562.589C683.445 562.777 683.372 562.996 683.365 563.244H680.846C680.853 562.594 681.034 562.023 681.389 561.529C681.744 561.032 682.227 560.643 682.838 560.363C683.452 560.082 684.152 559.942 684.937 559.942C685.718 559.942 686.405 560.078 686.998 560.352C687.591 560.625 688.053 560.998 688.383 561.471C688.713 561.939 688.878 562.47 688.878 563.063C688.882 563.678 688.681 564.184 688.276 564.581C687.875 564.979 687.358 565.224 686.726 565.316V565.402C687.572 565.501 688.209 565.775 688.639 566.222C689.072 566.669 689.287 567.229 689.283 567.9C689.283 568.532 689.097 569.093 688.724 569.583C688.355 570.07 687.84 570.453 687.179 570.734C686.522 571.011 685.768 571.149 684.915 571.149Z" fill="black"/>
<path id="box_RegisterFile" fill-rule="evenodd" clip-rule="evenodd" d="M834.827 610.849H650.236V424.595H834.827V610.849ZM653.236 607.849H831.827V427.595H706.514L687.45 449.527L668.384 427.595H653.236V607.849ZM687.45 444.955L702.538 427.595H672.36L687.45 444.955Z" fill="black"/>
<path id="label_rf_title_2" d="M1342.62 539H1338.58V528.091H1342.61C1343.72 528.091 1344.68 528.309 1345.48 528.746C1346.29 529.179 1346.91 529.804 1347.35 530.621C1347.78 531.434 1348 532.407 1348 533.54C1348 534.676 1347.78 535.653 1347.35 536.47C1346.91 537.287 1346.29 537.913 1345.49 538.35C1344.68 538.783 1343.72 539 1342.62 539ZM1341.22 536.752H1342.52C1343.13 536.752 1343.64 536.649 1344.07 536.443C1344.49 536.234 1344.81 535.895 1345.03 535.426C1345.25 534.953 1345.36 534.325 1345.36 533.54C1345.36 532.755 1345.25 532.13 1345.03 531.665C1344.81 531.196 1344.48 530.859 1344.05 530.653C1343.63 530.444 1343.1 530.339 1342.48 530.339H1341.22V536.752ZM1351.85 539.138C1351.33 539.138 1350.86 539.051 1350.46 538.877C1350.06 538.7 1349.74 538.434 1349.5 538.078C1349.27 537.72 1349.16 537.271 1349.16 536.731C1349.16 536.276 1349.24 535.893 1349.4 535.58C1349.56 535.268 1349.78 535.014 1350.06 534.819C1350.34 534.623 1350.66 534.476 1351.03 534.376C1351.39 534.273 1351.78 534.204 1352.2 534.169C1352.66 534.126 1353.04 534.082 1353.32 534.036C1353.61 533.986 1353.81 533.917 1353.94 533.828C1354.07 533.735 1354.14 533.606 1354.14 533.439V533.412C1354.14 533.139 1354.04 532.928 1353.86 532.778C1353.67 532.629 1353.41 532.555 1353.09 532.555C1352.75 532.555 1352.47 532.629 1352.26 532.778C1352.05 532.928 1351.92 533.134 1351.86 533.396L1349.46 533.311C1349.53 532.814 1349.72 532.37 1350.01 531.979C1350.31 531.585 1350.72 531.276 1351.24 531.053C1351.76 530.825 1352.38 530.712 1353.12 530.712C1353.64 530.712 1354.12 530.774 1354.56 530.898C1355 531.019 1355.38 531.196 1355.71 531.431C1356.04 531.662 1356.29 531.946 1356.47 532.283C1356.65 532.62 1356.74 533.006 1356.74 533.439V539H1354.29V537.86H1354.22C1354.08 538.137 1353.89 538.371 1353.66 538.563C1353.44 538.755 1353.18 538.899 1352.87 538.995C1352.57 539.091 1352.23 539.138 1351.85 539.138ZM1352.65 537.434C1352.93 537.434 1353.18 537.377 1353.41 537.263C1353.64 537.15 1353.82 536.994 1353.95 536.795C1354.09 536.592 1354.15 536.358 1354.15 536.092V535.314C1354.08 535.353 1353.99 535.388 1353.88 535.42C1353.78 535.452 1353.67 535.483 1353.54 535.511C1353.42 535.539 1353.29 535.564 1353.16 535.586C1353.03 535.607 1352.9 535.626 1352.78 535.644C1352.54 535.683 1352.33 535.744 1352.15 535.825C1351.98 535.907 1351.85 536.013 1351.76 536.145C1351.67 536.273 1351.62 536.425 1351.62 536.603C1351.62 536.873 1351.72 537.079 1351.91 537.221C1352.11 537.363 1352.35 537.434 1352.65 537.434ZM1362.95 530.818V532.736H1357.79V530.818H1362.95ZM1358.87 528.858H1361.47V536.427C1361.47 536.587 1361.5 536.717 1361.55 536.816C1361.6 536.912 1361.68 536.981 1361.78 537.024C1361.88 537.063 1362 537.082 1362.13 537.082C1362.23 537.082 1362.34 537.074 1362.45 537.056C1362.56 537.034 1362.65 537.017 1362.7 537.002L1363.1 538.883C1362.97 538.918 1362.8 538.963 1362.57 539.016C1362.35 539.069 1362.08 539.103 1361.77 539.117C1361.16 539.146 1360.63 539.075 1360.19 538.904C1359.76 538.73 1359.43 538.46 1359.2 538.094C1358.97 537.729 1358.86 537.269 1358.87 536.715V528.858ZM1366.58 539.138C1366.06 539.138 1365.6 539.051 1365.19 538.877C1364.79 538.7 1364.47 538.434 1364.24 538.078C1364.01 537.72 1363.89 537.271 1363.89 536.731C1363.89 536.276 1363.97 535.893 1364.13 535.58C1364.29 535.268 1364.51 535.014 1364.79 534.819C1365.08 534.623 1365.4 534.476 1365.76 534.376C1366.13 534.273 1366.52 534.204 1366.94 534.169C1367.4 534.126 1367.78 534.082 1368.06 534.036C1368.34 533.986 1368.55 533.917 1368.68 533.828C1368.81 533.735 1368.87 533.606 1368.87 533.439V533.412C1368.87 533.139 1368.78 532.928 1368.59 532.778C1368.4 532.629 1368.15 532.555 1367.83 532.555C1367.49 532.555 1367.21 532.629 1367 532.778C1366.79 532.928 1366.66 533.134 1366.6 533.396L1364.2 533.311C1364.27 532.814 1364.45 532.37 1364.75 531.979C1365.04 531.585 1365.45 531.276 1365.97 531.053C1366.49 530.825 1367.12 530.712 1367.85 530.712C1368.37 530.712 1368.86 530.774 1369.3 530.898C1369.74 531.019 1370.12 531.196 1370.45 531.431C1370.77 531.662 1371.02 531.946 1371.2 532.283C1371.38 532.62 1371.47 533.006 1371.47 533.439V539H1369.02V537.86H1368.96C1368.81 538.137 1368.63 538.371 1368.4 538.563C1368.18 538.755 1367.91 538.899 1367.61 538.995C1367.31 539.091 1366.96 539.138 1366.58 539.138ZM1367.39 537.434C1367.67 537.434 1367.92 537.377 1368.14 537.263C1368.37 537.15 1368.55 536.994 1368.69 536.795C1368.82 536.592 1368.89 536.358 1368.89 536.092V535.314C1368.82 535.353 1368.73 535.388 1368.62 535.42C1368.52 535.452 1368.4 535.483 1368.28 535.511C1368.15 535.539 1368.03 535.564 1367.89 535.586C1367.76 535.607 1367.64 535.626 1367.52 535.644C1367.27 535.683 1367.06 535.744 1366.89 535.825C1366.72 535.907 1366.59 536.013 1366.49 536.145C1366.4 536.273 1366.36 536.425 1366.36 536.603C1366.36 536.873 1366.46 537.079 1366.65 537.221C1366.84 537.363 1367.09 537.434 1367.39 537.434ZM1325.05 546.091H1328.31L1331.08 552.845H1331.21L1333.98 546.091H1337.25V557H1334.68V550.299H1334.59L1331.97 556.931H1330.33L1327.71 550.262H1327.62V557H1325.05V546.091ZM1342.72 557.154C1341.86 557.154 1341.12 556.986 1340.5 556.648C1339.88 556.308 1339.41 555.823 1339.07 555.194C1338.74 554.562 1338.58 553.811 1338.58 552.941C1338.58 552.096 1338.74 551.357 1339.08 550.725C1339.41 550.089 1339.88 549.596 1340.49 549.244C1341.1 548.889 1341.81 548.712 1342.64 548.712C1343.22 548.712 1343.75 548.802 1344.23 548.983C1344.72 549.164 1345.13 549.433 1345.49 549.788C1345.84 550.143 1346.11 550.581 1346.31 551.103C1346.5 551.622 1346.6 552.217 1346.6 552.888V553.538H1339.49V552.025H1344.18C1344.17 551.748 1344.11 551.501 1343.98 551.284C1343.85 551.068 1343.68 550.899 1343.45 550.778C1343.23 550.654 1342.98 550.592 1342.69 550.592C1342.4 550.592 1342.14 550.658 1341.91 550.789C1341.68 550.917 1341.49 551.093 1341.36 551.316C1341.22 551.537 1341.15 551.787 1341.15 552.067V553.607C1341.15 553.941 1341.21 554.234 1341.34 554.486C1341.47 554.734 1341.66 554.928 1341.9 555.066C1342.14 555.205 1342.43 555.274 1342.76 555.274C1343 555.274 1343.2 555.242 1343.39 555.178C1343.58 555.114 1343.74 555.02 1343.88 554.896C1344.01 554.772 1344.11 554.619 1344.18 554.438L1346.57 554.507C1346.47 555.043 1346.26 555.51 1345.92 555.908C1345.58 556.302 1345.15 556.609 1344.6 556.83C1344.06 557.046 1343.43 557.154 1342.72 557.154ZM1347.93 557V548.818H1350.41V550.32H1350.5C1350.67 549.823 1350.96 549.431 1351.36 549.143C1351.77 548.855 1352.25 548.712 1352.81 548.712C1353.38 548.712 1353.86 548.857 1354.27 549.148C1354.67 549.44 1354.93 549.83 1355.04 550.32H1355.13C1355.28 549.834 1355.58 549.445 1356.02 549.154C1356.47 548.859 1356.99 548.712 1357.59 548.712C1358.37 548.712 1359 548.96 1359.48 549.457C1359.96 549.951 1360.2 550.629 1360.2 551.492V557H1357.6V552.089C1357.6 551.68 1357.49 551.37 1357.28 551.157C1357.07 550.94 1356.8 550.832 1356.47 550.832C1356.11 550.832 1355.83 550.949 1355.62 551.183C1355.42 551.414 1355.32 551.725 1355.32 552.115V557H1352.81V552.062C1352.81 551.682 1352.71 551.382 1352.51 551.162C1352.3 550.942 1352.03 550.832 1351.69 550.832C1351.46 550.832 1351.26 550.887 1351.09 550.997C1350.91 551.103 1350.78 551.256 1350.68 551.455C1350.58 551.654 1350.53 551.888 1350.53 552.158V557H1347.93ZM1365.64 557.154C1364.78 557.154 1364.04 556.979 1363.42 556.627C1362.81 556.272 1362.33 555.778 1362 555.146C1361.67 554.511 1361.5 553.774 1361.5 552.936C1361.5 552.094 1361.67 551.357 1362 550.725C1362.33 550.089 1362.81 549.596 1363.42 549.244C1364.04 548.889 1364.78 548.712 1365.64 548.712C1366.5 548.712 1367.23 548.889 1367.85 549.244C1368.46 549.596 1368.94 550.089 1369.27 550.725C1369.6 551.357 1369.77 552.094 1369.77 552.936C1369.77 553.774 1369.6 554.511 1369.27 555.146C1368.94 555.778 1368.46 556.272 1367.85 556.627C1367.23 556.979 1366.5 557.154 1365.64 557.154ZM1365.65 555.189C1365.96 555.189 1366.23 555.093 1366.45 554.901C1366.66 554.71 1366.83 554.443 1366.94 554.102C1367.06 553.761 1367.12 553.367 1367.12 552.92C1367.12 552.465 1367.06 552.067 1366.94 551.727C1366.83 551.386 1366.66 551.119 1366.45 550.928C1366.23 550.736 1365.96 550.64 1365.65 550.64C1365.33 550.64 1365.06 550.736 1364.83 550.928C1364.61 551.119 1364.44 551.386 1364.33 551.727C1364.21 552.067 1364.16 552.465 1364.16 552.92C1364.16 553.367 1364.21 553.761 1364.33 554.102C1364.44 554.443 1364.61 554.71 1364.83 554.901C1365.06 555.093 1365.33 555.189 1365.65 555.189ZM1371.1 557V548.818H1373.63V550.31H1373.72C1373.87 549.77 1374.11 549.369 1374.45 549.106C1374.79 548.839 1375.18 548.706 1375.63 548.706C1375.75 548.706 1375.87 548.715 1376 548.733C1376.13 548.747 1376.25 548.77 1376.36 548.802V551.066C1376.23 551.023 1376.07 550.99 1375.87 550.965C1375.67 550.94 1375.49 550.928 1375.33 550.928C1375.02 550.928 1374.75 550.997 1374.5 551.135C1374.25 551.27 1374.06 551.46 1373.92 551.705C1373.78 551.947 1373.71 552.231 1373.71 552.558V557H1371.1ZM1379.26 560.068C1378.95 560.068 1378.65 560.043 1378.37 559.994C1378.1 559.947 1377.86 559.885 1377.66 559.807L1378.24 557.916C1378.49 558.001 1378.72 558.051 1378.93 558.065C1379.14 558.08 1379.32 558.046 1379.47 557.964C1379.62 557.886 1379.74 557.746 1379.82 557.543L1379.92 557.298L1377.01 548.818H1379.74L1381.25 554.656H1381.33L1382.86 548.818H1385.6L1382.52 557.783C1382.37 558.23 1382.16 558.625 1381.89 558.966C1381.62 559.31 1381.27 559.58 1380.84 559.775C1380.41 559.971 1379.88 560.068 1379.26 560.068Z" fill="black"/>
<path id="label_RF_A1_2" d="M1295.93 504H1293.09L1296.77 493.091H1300.28L1303.97 504H1301.13L1298.57 495.839H1298.48L1295.93 504ZM1295.55 499.707H1301.47V501.71H1295.55V499.707ZM1309.65 493.091V504H1307.02V495.552H1306.96L1304.52 497.043V494.763L1307.21 493.091H1309.65Z" fill="black"/>
<path id="label_RF_RD1_2" d="M1395.88 504V493.091H1400.39C1401.2 493.091 1401.91 493.238 1402.5 493.533C1403.1 493.824 1403.56 494.243 1403.88 494.79C1404.21 495.333 1404.37 495.978 1404.37 496.724C1404.37 497.48 1404.2 498.123 1403.87 498.652C1403.54 499.178 1403.07 499.579 1402.47 499.856C1401.86 500.129 1401.14 500.266 1400.31 500.266H1397.46V498.189H1399.82C1400.22 498.189 1400.55 498.137 1400.81 498.034C1401.08 497.928 1401.29 497.768 1401.43 497.555C1401.56 497.338 1401.63 497.061 1401.63 496.724C1401.63 496.386 1401.56 496.108 1401.43 495.887C1401.29 495.664 1401.08 495.497 1400.81 495.387C1400.54 495.273 1400.21 495.216 1399.82 495.216H1398.52V504H1395.88ZM1402.02 499.014L1404.74 504H1401.86L1399.2 499.014H1402.02ZM1409.85 504H1405.81V493.091H1409.84C1410.95 493.091 1411.91 493.309 1412.71 493.746C1413.52 494.179 1414.14 494.804 1414.58 495.621C1415.01 496.434 1415.23 497.407 1415.23 498.54C1415.23 499.676 1415.01 500.653 1414.58 501.47C1414.14 502.287 1413.52 502.913 1412.72 503.35C1411.91 503.783 1410.95 504 1409.85 504ZM1408.45 501.752H1409.74C1410.35 501.752 1410.87 501.649 1411.29 501.443C1411.72 501.234 1412.04 500.895 1412.26 500.426C1412.48 499.953 1412.59 499.325 1412.59 498.54C1412.59 497.755 1412.48 497.13 1412.26 496.665C1412.04 496.196 1411.71 495.859 1411.28 495.653C1410.86 495.444 1410.33 495.339 1409.71 495.339H1408.45V501.752Z" fill="black"/>
<path id="label_RF_WE3_2" d="M1363.83 466L1360.65 455.091H1363.57L1365.21 462.239H1365.3L1367.18 455.091H1369.56L1371.44 462.255H1371.53L1373.18 455.091H1376.09L1372.92 466H1370.38L1368.42 459.384H1368.33L1366.36 466H1363.83ZM1377.18 466V455.091H1384.79V457.232H1379.82V459.469H1384.4V461.616H1379.82V463.859H1384.79V466H1377.18Z" fill="black"/>
<path id="label_RF_WB3_2" d="M1295.98 602L1292.8 591.091H1295.72L1297.36 598.239H1297.45L1299.33 591.091H1301.71L1303.59 598.255H1303.68L1305.33 591.091H1308.24L1305.07 602H1302.53L1300.57 595.384H1300.48L1298.51 602H1295.98ZM1313.36 602H1309.33V591.091H1313.36C1314.47 591.091 1315.43 591.309 1316.23 591.746C1317.03 592.179 1317.66 592.804 1318.09 593.621C1318.53 594.434 1318.75 595.407 1318.75 596.54C1318.75 597.676 1318.53 598.653 1318.09 599.47C1317.66 600.287 1317.04 600.913 1316.23 601.35C1315.43 601.783 1314.47 602 1313.36 602ZM1311.97 599.752H1313.26C1313.87 599.752 1314.39 599.649 1314.81 599.443C1315.24 599.234 1315.56 598.895 1315.78 598.426C1316 597.953 1316.11 597.325 1316.11 596.54C1316.11 595.755 1316 595.13 1315.78 594.665C1315.56 594.196 1315.23 593.859 1314.8 593.653C1314.37 593.444 1313.85 593.339 1313.22 593.339H1311.97V599.752Z" fill="black"/>
<path id="box_DataMemory" fill-rule="evenodd" clip-rule="evenodd" d="M1425 630H1284V444H1425V630ZM1286.29 627.004H1422.71V446.996H1326.99L1312.43 468.899L1297.86 446.996H1286.29V627.004ZM1312.43 464.333L1323.95 446.996H1300.9L1312.43 464.333Z" fill="black"/>
<path id="box_PC" fill-rule="evenodd" clip-rule="evenodd" d="M270 489H237V425H270V489ZM253.5 446L240 428.305V486H267V428.305L253.5 446ZM253.5 441.056L263.46 428H243.54L253.5 441.056Z" fill="black"/>
<path id="wire_InstrD" d="M540 461.777H593M593 461.777V453.788V286M593 461.777V496.234V681" stroke="black" stroke-width="3"/>
<line id="wire_AdderPC_Plus4" x1="331" y1="779.5" x2="366" y2="779.5" stroke="black" stroke-width="3"/>
<path id="wire_RD1D" d="M833.5 456.5H863.5" stroke="black" stroke-width="3"/>
<path id="wire_RD2D" d="M833.5 492.5H863.5" stroke="black" stroke-width="3"/>
<path id="wire_RtD" d="M593.5 648.5H863" stroke="black" stroke-width="3"/>
<path id="wire_RdD" d="M593.5 680H863" stroke="black" stroke-width="3"/>
<g id="box_SignExtend">
<mask id="path-66-inside-8_6_98" fill="white">
<path d="M645 794.97L824 768V826H645V794.97Z"/>
</mask>
<path d="M645 794.97L824 768V826H645V794.97Z" stroke="black" stroke-width="6" mask="url(#path-66-inside-8_6_98)"/>
</g>
<path id="wire_PCPlus4D" d="M540.5 875.5H861.5" stroke="black" stroke-width="3"/>
<path id="wire_SignExtend" d="M593 681V812H647" stroke="black" stroke-width="3"/>
<path id="wire_A1_Rf" d="M593 456H651.5" stroke="black" stroke-width="3"/>
<path id="wire_A2_Rf" d="M593 499H652.5" stroke="black" stroke-width="3"/>
<g id="box_&#60;&#60;2">
<mask id="path-71-inside-9_6_98" fill="white">
<path d="M1031.6 772L978 772L991.4 824H1045L1031.6 772Z"/>
</mask>
<path d="M1031.6 772L978 772L991.4 824H1045L1031.6 772Z" stroke="black" stroke-width="6" mask="url(#path-71-inside-9_6_98)"/>
</g>
<path id="wire_ALUSrcA" d="M892 455.5H1051.5" stroke="black" stroke-width="3"/>
<path id="wire_ALUResultE" d="M1124 496.5H1141.5" stroke="black" stroke-width="3"/>
<path id="wire_RD2E" d="M893 493H954V532" stroke="black" stroke-width="3"/>
<path id="wire_RD2EtoMUX" d="M952.5 531.5H982" stroke="black" stroke-width="3"/>
<path id="wire_WriteDataE" d="M954 531V597H1141" stroke="black" stroke-width="3"/>
<path id="wire_ALUSrcB" d="M1009 545.5H1051.5" stroke="black" stroke-width="3"/>
<path id="wire_RtE" d="M892 649H944" stroke="black" stroke-width="3"/>
<path id="wire_RdE" d="M892.5 681H944.5" stroke="black" stroke-width="3"/>
<path id="wire_WriteRegE" d="M971 664.5H1141.5" stroke="black" stroke-width="3"/>
<path id="wire_SignEmmE" d="M891 798H923.5" stroke="black" stroke-width="3"/>
<path id="wire_SignEmmD" d="M822.5 798H862" stroke="black" stroke-width="3"/>
<path id="wire_SignEmmtoMUX" d="M924 799V554H982" stroke="black" stroke-width="3"/>
<path id="wire_SignEmmtox&#60;&#60;2" d="M920 798H986.5" stroke="black" stroke-width="3"/>
<path id="wire_&#60;&#60;2toAdder" d="M1037.5 799.5H1066.5" stroke="black" stroke-width="3"/>
<path id="wire_PCPlus4E" d="M892.5 876H1066" stroke="black" stroke-width="3"/>
<path id="wire_PCBranchE" d="M1124 832.5H1141.5" stroke="black" stroke-width="3"/>
<path id="wire_ZeroE" d="M1123.5 463H1141" stroke="black"/>
<path id="wire_PCPlusResult" d="M438.5 737.5H453.5V874.5" stroke="black" stroke-width="3"/>
<path id="wire_PCPlusResulttoMUX" d="M455 875H137V442H155" stroke="black" stroke-width="3"/>
<path id="wire_ZeroM" d="M1171.5 463.5H1234V345.5" stroke="black"/>
<path id="wire_ALUResultM" d="M1171.5 497H1262.5" stroke="black" stroke-width="3"/>
<path id="wire_ALUResulttoDM" d="M1261 497H1285.5" stroke="black" stroke-width="3"/>
<path id="wire_WriteDataM" d="M1172 598H1284.5" stroke="black" stroke-width="3"/>
<path id="wire_ALUREsultMtoReg" d="M1262.5 497.5V421H1449.5" stroke="black" stroke-width="3"/>
<path id="wire_RDM" d="M1424.5 499.5H1450" stroke="black" stroke-width="3"/>
<path id="wire_WriteRegM" d="M1172 665.5H1449" stroke="black" stroke-width="3"/>
<path id="wire_PCBranchM" d="M1172.5 833.5H1261.5V919H115.5V462.5H154" stroke="black" stroke-width="3"/>
<path id="wire_WriteRegW" d="M1479.5 666.5H1544V943.5H571V527H651.5" stroke="black" stroke-width="3"/>
<path id="wire_RDW" d="M1480 500H1551" stroke="black" stroke-width="3"/>
<path id="wire_ALUResultW" d="M1480 421H1530V480H1551" stroke="black" stroke-width="3"/>
<path id="wire_ResultW" d="M1578.5 491H1599V962.5H551.5V569.5H652.5" stroke="black" stroke-width="3"/>
</g>
</svg>
