<svg width="1920" height="1080" viewBox="0 0 1920 1080" fill="none" xmlns="http://www.w3.org/2000/svg">
<g id="Frame 2">
<rect width="1920" height="1080" fill="white"/>
<path id="label_mux_PCSource_1" d="M168.121 456.091V467H165.489V458.552H165.425L162.986 460.043V457.763L165.676 456.091H168.121Z" fill="black"/>
<path id="label_mux_PCSource_0" d="M166.499 449.266C165.547 449.266 164.727 449.041 164.038 448.59C163.349 448.135 162.818 447.484 162.445 446.635C162.072 445.783 161.888 444.758 161.891 443.561C161.895 442.365 162.081 441.349 162.45 440.515C162.823 439.676 163.352 439.039 164.038 438.602C164.727 438.162 165.547 437.942 166.499 437.942C167.45 437.942 168.271 438.162 168.96 438.602C169.652 439.039 170.185 439.676 170.558 440.515C170.93 441.353 171.115 442.368 171.112 443.561C171.112 444.762 170.925 445.788 170.552 446.64C170.179 447.493 169.649 448.144 168.96 448.595C168.274 449.043 167.454 449.266 166.499 449.266ZM166.499 447.109C167.067 447.109 167.527 446.82 167.878 446.241C168.23 445.658 168.404 444.765 168.4 443.561C168.4 442.773 168.32 442.123 168.161 441.612C168.001 441.097 167.779 440.713 167.495 440.461C167.211 440.209 166.879 440.083 166.499 440.083C165.934 440.083 165.478 440.369 165.13 440.941C164.782 441.509 164.606 442.382 164.602 443.561C164.599 444.36 164.675 445.023 164.831 445.548C164.991 446.074 165.215 446.466 165.503 446.725C165.79 446.981 166.122 447.109 166.499 447.109Z" fill="black"/>
<rect id="box_InstructionMemory" x="342.5" y="425.5" width="139" height="183" stroke="black" stroke-width="3"/>
<path id="label_im_title" d="M372.262 513.091V524H369.625V513.091H372.262ZM376.522 519.334V524H373.917V515.818H376.394V517.32H376.485C376.666 516.82 376.975 516.427 377.412 516.143C377.849 515.855 378.369 515.712 378.972 515.712C379.548 515.712 380.047 515.841 380.469 516.1C380.895 516.356 381.226 516.715 381.46 517.176C381.698 517.635 381.815 518.171 381.812 518.785V524H379.207V519.297C379.21 518.842 379.095 518.487 378.861 518.231C378.63 517.975 378.308 517.848 377.896 517.848C377.623 517.848 377.382 517.908 377.172 518.029C376.966 518.146 376.806 518.315 376.693 518.535C376.583 518.755 376.526 519.021 376.522 519.334ZM390.567 518.316L388.176 518.38C388.151 518.21 388.083 518.059 387.973 517.928C387.863 517.793 387.719 517.688 387.542 517.613C387.368 517.535 387.165 517.496 386.935 517.496C386.633 517.496 386.375 517.556 386.162 517.677C385.953 517.798 385.85 517.961 385.853 518.167C385.85 518.327 385.914 518.466 386.045 518.583C386.18 518.7 386.42 518.794 386.764 518.865L388.341 519.163C389.158 519.32 389.765 519.579 390.163 519.941C390.564 520.303 390.766 520.783 390.77 521.379C390.766 521.94 390.599 522.429 390.269 522.844C389.942 523.26 389.495 523.583 388.927 523.814C388.359 524.041 387.709 524.154 386.977 524.154C385.809 524.154 384.887 523.915 384.213 523.435C383.541 522.952 383.158 522.306 383.062 521.496L385.635 521.433C385.692 521.731 385.839 521.958 386.077 522.114C386.315 522.271 386.619 522.349 386.988 522.349C387.322 522.349 387.593 522.287 387.803 522.162C388.012 522.038 388.119 521.873 388.122 521.667C388.119 521.482 388.037 521.335 387.877 521.225C387.718 521.111 387.467 521.022 387.126 520.958L385.699 520.687C384.878 520.538 384.268 520.262 383.866 519.861C383.465 519.456 383.266 518.941 383.27 518.316C383.266 517.77 383.412 517.303 383.707 516.915C384.001 516.525 384.42 516.227 384.964 516.021C385.507 515.815 386.148 515.712 386.887 515.712C387.995 515.712 388.868 515.944 389.507 516.409C390.147 516.871 390.5 517.507 390.567 518.316ZM396.67 515.818V517.736H391.509V515.818H396.67ZM392.59 513.858H395.195V521.427C395.195 521.587 395.22 521.717 395.27 521.816C395.323 521.912 395.399 521.981 395.499 522.024C395.598 522.063 395.717 522.082 395.855 522.082C395.955 522.082 396.06 522.074 396.17 522.056C396.283 522.034 396.369 522.017 396.425 522.002L396.82 523.883C396.695 523.918 396.52 523.963 396.292 524.016C396.069 524.069 395.8 524.103 395.488 524.117C394.877 524.146 394.353 524.075 393.917 523.904C393.483 523.73 393.151 523.46 392.92 523.094C392.693 522.729 392.583 522.269 392.59 521.715V513.858ZM397.999 524V515.818H400.53V517.31H400.615C400.764 516.77 401.007 516.369 401.345 516.106C401.682 515.839 402.074 515.706 402.522 515.706C402.643 515.706 402.767 515.715 402.895 515.733C403.023 515.747 403.142 515.77 403.252 515.802V518.066C403.127 518.023 402.964 517.99 402.762 517.965C402.563 517.94 402.385 517.928 402.229 517.928C401.92 517.928 401.641 517.997 401.393 518.135C401.148 518.27 400.954 518.46 400.812 518.705C400.673 518.947 400.604 519.231 400.604 519.558V524H397.999ZM409.592 520.468V515.818H412.191V524H409.709V522.477H409.624C409.443 522.977 409.134 523.375 408.697 523.67C408.264 523.961 407.74 524.107 407.125 524.107C406.568 524.107 406.078 523.979 405.655 523.723C405.233 523.467 404.904 523.11 404.67 522.652C404.435 522.191 404.316 521.651 404.313 521.033V515.818H406.918V520.522C406.921 520.966 407.038 521.315 407.269 521.571C407.5 521.827 407.814 521.955 408.212 521.955C408.471 521.955 408.704 521.898 408.91 521.784C409.119 521.667 409.285 521.498 409.405 521.278C409.53 521.054 409.592 520.784 409.592 520.468ZM417.668 524.154C416.805 524.154 416.065 523.977 415.447 523.622C414.833 523.267 414.36 522.773 414.03 522.141C413.7 521.505 413.535 520.77 413.535 519.936C413.535 519.098 413.7 518.363 414.03 517.73C414.364 517.095 414.838 516.599 415.452 516.244C416.07 515.889 416.807 515.712 417.663 515.712C418.419 515.712 419.078 515.848 419.639 516.122C420.204 516.395 420.644 516.782 420.96 517.283C421.28 517.78 421.449 518.364 421.466 519.036H419.032C418.982 518.616 418.84 518.288 418.606 518.05C418.375 517.812 418.073 517.693 417.7 517.693C417.398 517.693 417.134 517.778 416.907 517.949C416.679 518.116 416.502 518.364 416.374 518.695C416.25 519.021 416.188 519.426 416.188 519.909C416.188 520.392 416.25 520.8 416.374 521.134C416.502 521.464 416.679 521.715 416.907 521.885C417.134 522.052 417.398 522.136 417.7 522.136C417.942 522.136 418.155 522.084 418.339 521.981C418.528 521.878 418.682 521.727 418.803 521.528C418.924 521.326 419 521.081 419.032 520.793H421.466C421.441 521.468 421.273 522.058 420.96 522.562C420.651 523.066 420.216 523.458 419.655 523.739C419.098 524.016 418.435 524.154 417.668 524.154ZM427.418 515.818V517.736H422.256V515.818H427.418ZM423.337 513.858H425.942V521.427C425.942 521.587 425.967 521.717 426.017 521.816C426.07 521.912 426.146 521.981 426.246 522.024C426.345 522.063 426.464 522.082 426.603 522.082C426.702 522.082 426.807 522.074 426.917 522.056C427.03 522.034 427.116 522.017 427.172 522.002L427.567 523.883C427.442 523.918 427.267 523.963 427.039 524.016C426.816 524.069 426.547 524.103 426.235 524.117C425.624 524.146 425.1 524.075 424.664 523.904C424.23 523.73 423.898 523.46 423.668 523.094C423.44 522.729 423.33 522.269 423.337 521.715V513.858ZM428.747 524V515.818H431.351V524H428.747ZM430.052 514.865C429.686 514.865 429.372 514.744 429.109 514.502C428.846 514.257 428.715 513.963 428.715 513.618C428.715 513.277 428.846 512.986 429.109 512.745C429.372 512.5 429.686 512.377 430.052 512.377C430.421 512.377 430.735 512.5 430.994 512.745C431.257 512.986 431.389 513.277 431.389 513.618C431.389 513.963 431.257 514.257 430.994 514.502C430.735 514.744 430.421 514.865 430.052 514.865ZM436.828 524.154C435.969 524.154 435.23 523.979 434.613 523.627C433.998 523.272 433.524 522.778 433.19 522.146C432.86 521.511 432.695 520.774 432.695 519.936C432.695 519.094 432.86 518.357 433.19 517.725C433.524 517.089 433.998 516.596 434.613 516.244C435.23 515.889 435.969 515.712 436.828 515.712C437.688 515.712 438.425 515.889 439.039 516.244C439.657 516.596 440.131 517.089 440.461 517.725C440.795 518.357 440.962 519.094 440.962 519.936C440.962 520.774 440.795 521.511 440.461 522.146C440.131 522.778 439.657 523.272 439.039 523.627C438.425 523.979 437.688 524.154 436.828 524.154ZM436.844 522.189C437.157 522.189 437.422 522.093 437.638 521.901C437.855 521.71 438.02 521.443 438.134 521.102C438.251 520.761 438.309 520.367 438.309 519.92C438.309 519.465 438.251 519.067 438.134 518.727C438.02 518.386 437.855 518.119 437.638 517.928C437.422 517.736 437.157 517.64 436.844 517.64C436.521 517.64 436.248 517.736 436.024 517.928C435.804 518.119 435.635 518.386 435.518 518.727C435.404 519.067 435.348 519.465 435.348 519.92C435.348 520.367 435.404 520.761 435.518 521.102C435.635 521.443 435.804 521.71 436.024 521.901C436.248 522.093 436.521 522.189 436.844 522.189ZM444.901 519.334V524H442.296V515.818H444.773V517.32H444.864C445.045 516.82 445.354 516.427 445.791 516.143C446.227 515.855 446.748 515.712 447.351 515.712C447.927 515.712 448.426 515.841 448.848 516.1C449.274 516.356 449.605 516.715 449.839 517.176C450.077 517.635 450.194 518.171 450.191 518.785V524H447.586V519.297C447.589 518.842 447.474 518.487 447.24 518.231C447.009 517.975 446.687 517.848 446.275 517.848C446.002 517.848 445.76 517.908 445.551 518.029C445.345 518.146 445.185 518.315 445.072 518.535C444.961 518.755 444.905 519.021 444.901 519.334ZM381.549 531.091H384.815L387.584 537.845H387.712L390.482 531.091H393.747V542H391.18V535.299H391.089L388.469 541.931H386.828L384.207 535.262H384.117V542H381.549V531.091ZM399.217 542.154C398.361 542.154 397.622 541.986 397.001 541.648C396.383 541.308 395.907 540.823 395.573 540.194C395.243 539.562 395.078 538.811 395.078 537.941C395.078 537.096 395.245 536.357 395.578 535.725C395.912 535.089 396.383 534.596 396.99 534.244C397.597 533.889 398.313 533.712 399.137 533.712C399.719 533.712 400.252 533.802 400.735 533.983C401.218 534.164 401.635 534.433 401.987 534.788C402.338 535.143 402.612 535.581 402.807 536.103C403.002 536.622 403.1 537.217 403.1 537.888V538.538H395.989V537.025H400.676C400.673 536.748 400.607 536.501 400.479 536.284C400.351 536.068 400.175 535.899 399.952 535.778C399.732 535.654 399.478 535.592 399.19 535.592C398.899 535.592 398.638 535.658 398.407 535.789C398.176 535.917 397.993 536.093 397.858 536.316C397.723 536.537 397.652 536.787 397.645 537.067V538.607C397.645 538.941 397.711 539.234 397.842 539.486C397.974 539.734 398.16 539.928 398.402 540.066C398.643 540.205 398.931 540.274 399.265 540.274C399.495 540.274 399.705 540.242 399.893 540.178C400.081 540.114 400.243 540.02 400.378 539.896C400.513 539.772 400.614 539.619 400.681 539.438L403.073 539.507C402.974 540.043 402.755 540.51 402.418 540.908C402.084 541.302 401.646 541.609 401.102 541.83C400.559 542.046 399.93 542.154 399.217 542.154ZM404.43 542V533.818H406.907V535.32H406.998C407.168 534.823 407.456 534.431 407.861 534.143C408.265 533.855 408.748 533.712 409.309 533.712C409.878 533.712 410.364 533.857 410.769 534.148C411.174 534.44 411.431 534.83 411.541 535.32H411.627C411.779 534.834 412.078 534.445 412.521 534.154C412.965 533.859 413.489 533.712 414.093 533.712C414.867 533.712 415.495 533.96 415.978 534.457C416.461 534.951 416.703 535.629 416.703 536.492V542H414.098V537.089C414.098 536.68 413.993 536.37 413.784 536.157C413.574 535.94 413.303 535.832 412.969 535.832C412.61 535.832 412.328 535.949 412.122 536.183C411.919 536.414 411.818 536.725 411.818 537.115V542H409.315V537.062C409.315 536.682 409.212 536.382 409.006 536.162C408.8 535.942 408.528 535.832 408.191 535.832C407.964 535.832 407.763 535.887 407.589 535.997C407.415 536.103 407.278 536.256 407.179 536.455C407.083 536.654 407.035 536.888 407.035 537.158V542H404.43ZM422.136 542.154C421.277 542.154 420.538 541.979 419.92 541.627C419.306 541.272 418.832 540.778 418.498 540.146C418.168 539.511 418.003 538.774 418.003 537.936C418.003 537.094 418.168 536.357 418.498 535.725C418.832 535.089 419.306 534.596 419.92 534.244C420.538 533.889 421.277 533.712 422.136 533.712C422.995 533.712 423.732 533.889 424.347 534.244C424.965 534.596 425.439 535.089 425.769 535.725C426.103 536.357 426.27 537.094 426.27 537.936C426.27 538.774 426.103 539.511 425.769 540.146C425.439 540.778 424.965 541.272 424.347 541.627C423.732 541.979 422.995 542.154 422.136 542.154ZM422.152 540.189C422.465 540.189 422.729 540.093 422.946 539.901C423.162 539.71 423.328 539.443 423.441 539.102C423.558 538.761 423.617 538.367 423.617 537.92C423.617 537.465 423.558 537.067 423.441 536.727C423.328 536.386 423.162 536.119 422.946 535.928C422.729 535.736 422.465 535.64 422.152 535.64C421.829 535.64 421.555 535.736 421.332 535.928C421.112 536.119 420.943 536.386 420.826 536.727C420.712 537.067 420.655 537.465 420.655 537.92C420.655 538.367 420.712 538.761 420.826 539.102C420.943 539.443 421.112 539.71 421.332 539.901C421.555 540.093 421.829 540.189 422.152 540.189ZM427.604 542V533.818H430.134V535.31H430.219C430.369 534.77 430.612 534.369 430.949 534.106C431.286 533.839 431.679 533.706 432.126 533.706C432.247 533.706 432.371 533.715 432.499 533.733C432.627 533.747 432.746 533.77 432.856 533.802V536.066C432.732 536.023 432.568 535.99 432.366 535.965C432.167 535.94 431.99 535.928 431.833 535.928C431.524 535.928 431.246 535.997 430.997 536.135C430.752 536.27 430.559 536.46 430.416 536.705C430.278 536.947 430.209 537.231 430.209 537.558V542H427.604ZM435.759 545.068C435.447 545.068 435.152 545.043 434.875 544.994C434.598 544.947 434.36 544.885 434.161 544.807L434.736 542.916C434.992 543.001 435.223 543.051 435.429 543.065C435.638 543.08 435.818 543.046 435.967 542.964C436.12 542.886 436.237 542.746 436.318 542.543L436.42 542.298L433.511 533.818H436.239L437.746 539.656H437.831L439.36 533.818H442.103L439.019 542.783C438.87 543.23 438.659 543.625 438.385 543.966C438.115 544.31 437.766 544.58 437.336 544.775C436.91 544.971 436.384 545.068 435.759 545.068Z" fill="black"/>
<path id="label_rf_title" d="M724.778 560V549.091H729.285C730.101 549.091 730.806 549.238 731.399 549.533C731.996 549.824 732.456 550.243 732.779 550.79C733.102 551.333 733.264 551.978 733.264 552.724C733.264 553.48 733.099 554.123 732.768 554.652C732.438 555.178 731.969 555.579 731.362 555.856C730.755 556.129 730.036 556.266 729.205 556.266H726.355V554.189H728.715C729.112 554.189 729.444 554.137 729.711 554.034C729.981 553.928 730.185 553.768 730.323 553.555C730.462 553.338 730.531 553.061 730.531 552.724C730.531 552.386 730.462 552.108 730.323 551.887C730.185 551.664 729.981 551.497 729.711 551.387C729.441 551.273 729.109 551.216 728.715 551.216H727.415V560H724.778ZM730.92 555.014L733.637 560H730.76L728.097 555.014H730.92ZM738.373 560.154C737.518 560.154 736.779 559.986 736.157 559.648C735.54 559.308 735.064 558.823 734.73 558.194C734.4 557.562 734.235 556.811 734.235 555.941C734.235 555.096 734.401 554.357 734.735 553.725C735.069 553.089 735.54 552.596 736.147 552.244C736.754 551.889 737.47 551.712 738.293 551.712C738.876 551.712 739.409 551.802 739.891 551.983C740.374 552.164 740.792 552.433 741.143 552.788C741.495 553.143 741.768 553.581 741.964 554.103C742.159 554.622 742.257 555.217 742.257 555.888V556.538H735.145V555.025H739.833C739.829 554.748 739.764 554.501 739.636 554.284C739.508 554.068 739.332 553.899 739.108 553.778C738.888 553.654 738.634 553.592 738.347 553.592C738.056 553.592 737.795 553.658 737.564 553.789C737.333 553.917 737.15 554.093 737.015 554.316C736.88 554.537 736.809 554.787 736.802 555.067V556.607C736.802 556.941 736.868 557.234 736.999 557.486C737.13 557.734 737.317 557.928 737.558 558.066C737.8 558.205 738.087 558.274 738.421 558.274C738.652 558.274 738.862 558.242 739.05 558.178C739.238 558.114 739.4 558.02 739.535 557.896C739.67 557.772 739.771 557.619 739.838 557.438L742.23 557.507C742.13 558.043 741.912 558.51 741.575 558.908C741.241 559.302 740.802 559.609 740.259 559.83C739.716 560.046 739.087 560.154 738.373 560.154ZM747.401 563.239C746.623 563.239 745.957 563.13 745.403 562.914C744.849 562.697 744.414 562.401 744.098 562.024C743.782 561.648 743.592 561.222 743.528 560.746L745.995 560.607C746.041 560.774 746.126 560.92 746.25 561.044C746.378 561.168 746.543 561.264 746.746 561.332C746.952 561.399 747.193 561.433 747.47 561.433C747.907 561.433 748.267 561.326 748.551 561.113C748.839 560.904 748.983 560.536 748.983 560.011V558.572H748.892C748.789 558.825 748.633 559.05 748.424 559.249C748.214 559.448 747.953 559.604 747.64 559.718C747.332 559.831 746.976 559.888 746.575 559.888C745.979 559.888 745.432 559.75 744.935 559.473C744.441 559.192 744.045 558.759 743.747 558.173C743.452 557.583 743.305 556.825 743.305 555.898C743.305 554.943 743.457 554.157 743.763 553.539C744.068 552.917 744.468 552.457 744.961 552.159C745.458 551.861 745.993 551.712 746.564 551.712C746.994 551.712 747.362 551.786 747.667 551.935C747.976 552.081 748.23 552.269 748.429 552.5C748.628 552.731 748.779 552.971 748.882 553.219H748.956V551.818H751.55V560.032C751.55 560.724 751.376 561.309 751.028 561.784C750.68 562.26 750.194 562.621 749.569 562.866C748.944 563.114 748.221 563.239 747.401 563.239ZM747.481 557.992C747.797 557.992 748.067 557.908 748.29 557.741C748.514 557.575 748.686 557.335 748.807 557.022C748.928 556.71 748.988 556.335 748.988 555.898C748.988 555.455 748.928 555.073 748.807 554.753C748.69 554.43 748.518 554.181 748.29 554.007C748.067 553.833 747.797 553.746 747.481 553.746C747.158 553.746 746.884 553.835 746.66 554.013C746.437 554.19 746.266 554.441 746.149 554.764C746.035 555.083 745.979 555.462 745.979 555.898C745.979 556.335 746.037 556.71 746.154 557.022C746.272 557.335 746.44 557.575 746.66 557.741C746.884 557.908 747.158 557.992 747.481 557.992ZM753.211 560V551.818H755.816V560H753.211ZM754.516 550.865C754.15 550.865 753.836 550.744 753.573 550.502C753.31 550.257 753.179 549.963 753.179 549.618C753.179 549.277 753.31 548.986 753.573 548.745C753.836 548.5 754.15 548.377 754.516 548.377C754.885 548.377 755.2 548.5 755.459 548.745C755.722 548.986 755.853 549.277 755.853 549.618C755.853 549.963 755.722 550.257 755.459 550.502C755.2 550.744 754.885 550.865 754.516 550.865ZM764.617 554.316L762.225 554.38C762.2 554.21 762.133 554.059 762.023 553.928C761.913 553.793 761.769 553.688 761.591 553.613C761.417 553.535 761.215 553.496 760.984 553.496C760.682 553.496 760.425 553.556 760.212 553.677C760.002 553.798 759.899 553.961 759.903 554.167C759.899 554.327 759.963 554.466 760.094 554.583C760.229 554.7 760.469 554.794 760.813 554.865L762.39 555.163C763.207 555.32 763.814 555.579 764.212 555.941C764.613 556.303 764.816 556.783 764.819 557.379C764.816 557.94 764.649 558.429 764.318 558.844C763.992 559.26 763.544 559.583 762.976 559.814C762.408 560.041 761.758 560.154 761.027 560.154C759.858 560.154 758.937 559.915 758.262 559.435C757.591 558.952 757.207 558.306 757.111 557.496L759.684 557.433C759.741 557.731 759.888 557.958 760.126 558.114C760.364 558.271 760.668 558.349 761.037 558.349C761.371 558.349 761.643 558.287 761.852 558.162C762.062 558.038 762.168 557.873 762.172 557.667C762.168 557.482 762.087 557.335 761.927 557.225C761.767 557.111 761.517 557.022 761.176 556.958L759.748 556.687C758.928 556.538 758.317 556.262 757.916 555.861C757.514 555.456 757.316 554.941 757.319 554.316C757.316 553.77 757.461 553.303 757.756 552.915C758.051 552.525 758.47 552.227 759.013 552.021C759.556 551.815 760.197 551.712 760.936 551.712C762.044 551.712 762.917 551.944 763.557 552.409C764.196 552.871 764.549 553.507 764.617 554.316ZM770.72 551.818V553.736H765.558V551.818H770.72ZM766.64 549.858H769.244V557.427C769.244 557.587 769.269 557.717 769.319 557.816C769.372 557.912 769.448 557.981 769.548 558.024C769.647 558.063 769.766 558.082 769.905 558.082C770.004 558.082 770.109 558.074 770.219 558.056C770.333 558.034 770.418 558.017 770.475 558.002L770.869 559.883C770.745 559.918 770.569 559.963 770.342 560.016C770.118 560.069 769.85 560.103 769.537 560.117C768.926 560.146 768.403 560.075 767.966 559.904C767.533 559.73 767.201 559.46 766.97 559.094C766.742 558.729 766.632 558.269 766.64 557.715V549.858ZM775.785 560.154C774.93 560.154 774.191 559.986 773.57 559.648C772.952 559.308 772.476 558.823 772.142 558.194C771.812 557.562 771.647 556.811 771.647 555.941C771.647 555.096 771.814 554.357 772.147 553.725C772.481 553.089 772.952 552.596 773.559 552.244C774.166 551.889 774.882 551.712 775.706 551.712C776.288 551.712 776.821 551.802 777.304 551.983C777.787 552.164 778.204 552.433 778.555 552.788C778.907 553.143 779.18 553.581 779.376 554.103C779.571 554.622 779.669 555.217 779.669 555.888V556.538H772.557V555.025H777.245C777.241 554.748 777.176 554.501 777.048 554.284C776.92 554.068 776.744 553.899 776.521 553.778C776.3 553.654 776.046 553.592 775.759 553.592C775.468 553.592 775.207 553.658 774.976 553.789C774.745 553.917 774.562 554.093 774.427 554.316C774.292 554.537 774.221 554.787 774.214 555.067V556.607C774.214 556.941 774.28 557.234 774.411 557.486C774.543 557.734 774.729 557.928 774.97 558.066C775.212 558.205 775.5 558.274 775.833 558.274C776.064 558.274 776.274 558.242 776.462 558.178C776.65 558.114 776.812 558.02 776.947 557.896C777.082 557.772 777.183 557.619 777.25 557.438L779.642 557.507C779.543 558.043 779.324 558.51 778.987 558.908C778.653 559.302 778.214 559.609 777.671 559.83C777.128 560.046 776.499 560.154 775.785 560.154ZM780.999 560V551.818H783.529V553.31H783.614C783.764 552.77 784.007 552.369 784.344 552.106C784.682 551.839 785.074 551.706 785.521 551.706C785.642 551.706 785.766 551.715 785.894 551.733C786.022 551.747 786.141 551.77 786.251 551.802V554.066C786.127 554.023 785.963 553.99 785.761 553.965C785.562 553.94 785.385 553.928 785.228 553.928C784.919 553.928 784.641 553.997 784.392 554.135C784.147 554.27 783.954 554.46 783.811 554.705C783.673 554.947 783.604 555.231 783.604 555.558V560H780.999ZM790.535 560V549.091H797.982V551.232H793.172V553.469H797.508V555.616H793.172V560H790.535ZM799.31 560V551.818H801.914V560H799.31ZM800.615 550.865C800.249 550.865 799.935 550.744 799.672 550.502C799.409 550.257 799.278 549.963 799.278 549.618C799.278 549.277 799.409 548.986 799.672 548.745C799.935 548.5 800.249 548.377 800.615 548.377C800.984 548.377 801.298 548.5 801.557 548.745C801.82 548.986 801.952 549.277 801.952 549.618C801.952 549.963 801.82 550.257 801.557 550.502C801.298 550.744 800.984 550.865 800.615 550.865ZM806.177 549.091V560H803.572V549.091H806.177ZM811.659 560.154C810.804 560.154 810.065 559.986 809.444 559.648C808.826 559.308 808.35 558.823 808.016 558.194C807.686 557.562 807.521 556.811 807.521 555.941C807.521 555.096 807.688 554.357 808.021 553.725C808.355 553.089 808.826 552.596 809.433 552.244C810.04 551.889 810.756 551.712 811.58 551.712C812.162 551.712 812.695 551.802 813.178 551.983C813.661 552.164 814.078 552.433 814.429 552.788C814.781 553.143 815.054 553.581 815.25 554.103C815.445 554.622 815.543 555.217 815.543 555.888V556.538H808.432V555.025H813.119C813.115 554.748 813.05 554.501 812.922 554.284C812.794 554.068 812.618 553.899 812.395 553.778C812.174 553.654 811.92 553.592 811.633 553.592C811.342 553.592 811.081 553.658 810.85 553.789C810.619 553.917 810.436 554.093 810.301 554.316C810.166 554.537 810.095 554.787 810.088 555.067V556.607C810.088 556.941 810.154 557.234 810.285 557.486C810.417 557.734 810.603 557.928 810.845 558.066C811.086 558.205 811.374 558.274 811.707 558.274C811.938 558.274 812.148 558.242 812.336 558.178C812.524 558.114 812.686 558.02 812.821 557.896C812.956 557.772 813.057 557.619 813.124 557.438L815.516 557.507C815.417 558.043 815.198 558.51 814.861 558.908C814.527 559.302 814.088 559.609 813.545 559.83C813.002 560.046 812.373 560.154 811.659 560.154Z" fill="black"/>
<path id="label_im_A" d="M350.899 471H348.065L351.746 460.091H355.256L358.937 471H356.103L353.541 462.839H353.456L350.899 471ZM350.521 466.707H356.444V468.71H350.521V466.707Z" fill="black"/>
<path id="label_im_RD" d="M455.381 471V460.091H459.888C460.704 460.091 461.409 460.238 462.002 460.533C462.599 460.824 463.059 461.243 463.382 461.79C463.705 462.333 463.867 462.978 463.867 463.724C463.867 464.48 463.702 465.123 463.371 465.652C463.041 466.178 462.572 466.579 461.965 466.856C461.358 467.129 460.639 467.266 459.808 467.266H456.958V465.189H459.318C459.715 465.189 460.047 465.137 460.314 465.034C460.584 464.928 460.788 464.768 460.926 464.555C461.065 464.338 461.134 464.061 461.134 463.724C461.134 463.386 461.065 463.108 460.926 462.887C460.788 462.664 460.584 462.497 460.314 462.387C460.044 462.273 459.712 462.216 459.318 462.216H458.018V471H455.381ZM461.523 466.014L464.24 471H461.363L458.7 466.014H461.523ZM469.345 471H465.313V460.091H469.34C470.451 460.091 471.408 460.309 472.211 460.746C473.017 461.179 473.639 461.804 474.075 462.621C474.512 463.434 474.731 464.407 474.731 465.54C474.731 466.676 474.512 467.653 474.075 468.47C473.642 469.287 473.022 469.913 472.216 470.35C471.41 470.783 470.453 471 469.345 471ZM467.95 468.752H469.244C469.855 468.752 470.372 468.649 470.794 468.443C471.22 468.234 471.542 467.895 471.758 467.426C471.978 466.953 472.089 466.325 472.089 465.54C472.089 464.755 471.978 464.13 471.758 463.665C471.538 463.196 471.213 462.859 470.783 462.653C470.357 462.444 469.832 462.339 469.207 462.339H467.95V468.752Z" fill="black"/>
<path id="box_IF_ID_Register" fill-rule="evenodd" clip-rule="evenodd" d="M566.47 417.582H566.524V896.941H534.112V417.582H534.53L534.479 417.5H566.521L566.47 417.582ZM537.112 893.941H563.524V422.27L550.5 443L537.112 421.691V893.941ZM550.5 437.362L561.042 420.582H539.958L550.5 437.362Z" fill="black"/>
<path id="wire_PCF" d="M270 451H306.053M306.053 451V688H367M306.053 451H342.5" stroke="black" stroke-width="3"/>
<g id="mux_PC">
<mask id="path-10-inside-1_6_98" fill="white">
<path d="M153 424L182 438.709V464.917L153 480V424Z"/>
</mask>
<path d="M153 424L182 438.709V464.917L153 480V424Z" stroke="black" stroke-width="6" mask="url(#path-10-inside-1_6_98)"/>
</g>
<line id="wire_PC_Prime" x1="180.716" y1="450.259" x2="238.614" y2="450.161" stroke="black" stroke-width="3"/>
<line id="wire_PC_clock" x1="252.5" y1="426" x2="252.5" y2="400" stroke="black" stroke-width="3"/>
<line id="wire_IF_ID_Register_Clock" x1="549.5" y1="419" x2="549.5" y2="393" stroke="black" stroke-width="3"/>
<g id="box_AdderPC">
<mask id="path-14-inside-2_6_98" fill="white">
<path d="M366 666L409 681.654V733.992L366 750V739.5V734.25V729V718.5V713.25L383.116 708L366 702.75V697.5V687V681.75V676.5V666Z"/>
</mask>
<path d="M366 666L409 681.654V733.992L366 750V739.5V734.25V729V718.5V713.25L383.116 708L366 702.75V697.5V687V681.75V676.5V666Z" stroke="black" stroke-width="6" mask="url(#path-14-inside-2_6_98)"/>
</g>
<path id="label_AdderPC" d="M397.926 714.457V706.744H400.073V714.457H397.926ZM395.14 711.676V709.529H402.853V711.676H395.14Z" fill="black"/>
<path id="label_AdderPC_4" d="M318.5 737.189V735.133L322.969 728.091H324.796V730.882H323.736L321.121 735.026V735.112H327.593V737.189H318.5ZM323.768 739V736.56L323.822 735.66V728.091H326.288V739H323.768Z" fill="black"/>
<path id="wire_PCPlus4F" d="M408.363 707.583H454.484V875M454.484 875H111V440L132.283 440H154.259M454.484 875H535" stroke="black" stroke-width="3"/>
<line id="wire_InstrF" x1="482" y1="462.5" x2="535" y2="462.5" stroke="black" stroke-width="3"/>
<path id="label_RF_A1" d="M673.928 462H671.094L674.775 451.091H678.285L681.966 462H679.132L676.57 453.839H676.484L673.928 462ZM673.549 457.707H679.473V459.71H673.549V457.707ZM687.65 451.091V462H685.019V453.552H684.955L682.516 455.043V452.763L685.206 451.091H687.65Z" fill="black"/>
<path id="label_RF_RD1" d="M801.153 460V449.091H805.66C806.476 449.091 807.181 449.238 807.774 449.533C808.371 449.824 808.831 450.243 809.154 450.79C809.477 451.333 809.639 451.978 809.639 452.724C809.639 453.48 809.474 454.123 809.143 454.652C808.813 455.178 808.344 455.579 807.737 455.856C807.13 456.129 806.411 456.266 805.58 456.266H802.73V454.189H805.09C805.487 454.189 805.819 454.137 806.086 454.034C806.356 453.928 806.56 453.768 806.698 453.555C806.837 453.338 806.906 453.061 806.906 452.724C806.906 452.386 806.837 452.108 806.698 451.887C806.56 451.664 806.356 451.497 806.086 451.387C805.816 451.273 805.484 451.216 805.09 451.216H803.79V460H801.153ZM807.295 455.014L810.012 460H807.135L804.472 455.014H807.295ZM815.117 460H811.085V449.091H815.112C816.223 449.091 817.18 449.309 817.983 449.746C818.789 450.179 819.411 450.804 819.847 451.621C820.284 452.434 820.503 453.407 820.503 454.54C820.503 455.676 820.284 456.653 819.847 457.47C819.414 458.287 818.794 458.913 817.988 459.35C817.182 459.783 816.225 460 815.117 460ZM813.722 457.752H815.016C815.627 457.752 816.144 457.649 816.566 457.443C816.992 457.234 817.314 456.895 817.53 456.426C817.75 455.953 817.86 455.325 817.86 454.54C817.86 453.755 817.75 453.13 817.53 452.665C817.31 452.196 816.985 451.859 816.555 451.653C816.129 451.444 815.604 451.339 814.979 451.339H813.722V457.752ZM827.065 449.091V460H824.434V451.552H824.37L821.93 453.043V450.763L824.62 449.091H827.065Z" fill="black"/>
<path id="label_RF_WE3" d="M763.826 440L760.652 429.091H763.565L765.211 436.239H765.302L767.182 429.091H769.558L771.438 436.255H771.529L773.18 429.091H776.088L772.919 440H770.378L768.413 433.384H768.327L766.362 440H763.826ZM777.178 440V429.091H784.784V431.232H779.814V433.469H784.395V435.616H779.814V437.859H784.784V440H777.178ZM790.564 440.149C789.733 440.149 788.996 440.007 788.353 439.723C787.714 439.435 787.21 439.039 786.84 438.535C786.471 438.031 786.283 437.45 786.276 436.793H788.928C788.939 437.031 789.015 437.243 789.157 437.427C789.299 437.608 789.493 437.75 789.738 437.853C789.983 437.956 790.262 438.008 790.574 438.008C790.887 438.008 791.162 437.953 791.4 437.843C791.641 437.729 791.83 437.575 791.965 437.379C792.1 437.18 792.165 436.953 792.162 436.697C792.165 436.442 792.092 436.214 791.943 436.016C791.794 435.817 791.583 435.662 791.309 435.552C791.04 435.442 790.72 435.387 790.351 435.387H789.291V433.512H790.351C790.674 433.512 790.958 433.459 791.203 433.352C791.451 433.246 791.645 433.097 791.784 432.905C791.922 432.71 791.989 432.486 791.986 432.234C791.989 431.989 791.931 431.774 791.81 431.589C791.693 431.401 791.528 431.255 791.315 431.152C791.105 431.049 790.862 430.998 790.585 430.998C790.294 430.998 790.029 431.049 789.791 431.152C789.557 431.255 789.371 431.401 789.232 431.589C789.094 431.777 789.021 431.996 789.014 432.244H786.494C786.501 431.594 786.682 431.023 787.037 430.529C787.393 430.032 787.875 429.643 788.486 429.363C789.101 429.082 789.8 428.942 790.585 428.942C791.366 428.942 792.053 429.078 792.646 429.352C793.239 429.625 793.701 429.998 794.031 430.471C794.362 430.939 794.527 431.47 794.527 432.063C794.53 432.678 794.33 433.184 793.925 433.581C793.524 433.979 793.007 434.224 792.375 434.316V434.402C793.22 434.501 793.857 434.775 794.287 435.222C794.72 435.669 794.935 436.229 794.932 436.9C794.932 437.532 794.745 438.093 794.372 438.583C794.003 439.07 793.488 439.453 792.828 439.734C792.171 440.011 791.416 440.149 790.564 440.149Z" fill="black"/>
<path id="label_RF_RD2" d="M803.599 498V487.091H808.105C808.922 487.091 809.627 487.238 810.22 487.533C810.816 487.824 811.276 488.243 811.599 488.79C811.922 489.333 812.084 489.978 812.084 490.724C812.084 491.48 811.919 492.123 811.589 492.652C811.258 493.178 810.79 493.579 810.182 493.856C809.575 494.129 808.856 494.266 808.025 494.266H805.175V492.189H807.535C807.933 492.189 808.265 492.137 808.531 492.034C808.801 491.928 809.005 491.768 809.144 491.555C809.282 491.338 809.351 491.061 809.351 490.724C809.351 490.386 809.282 490.108 809.144 489.887C809.005 489.664 808.801 489.497 808.531 489.387C808.261 489.273 807.929 489.216 807.535 489.216H806.235V498H803.599ZM809.74 493.014L812.457 498H809.58L806.917 493.014H809.74ZM817.563 498H813.53V487.091H817.557C818.669 487.091 819.626 487.309 820.428 487.746C821.234 488.179 821.856 488.804 822.293 489.621C822.729 490.434 822.948 491.407 822.948 492.54C822.948 493.676 822.729 494.653 822.293 495.47C821.859 496.287 821.24 496.913 820.434 497.35C819.628 497.783 818.67 498 817.563 498ZM816.167 495.752H817.461C818.072 495.752 818.589 495.649 819.011 495.443C819.438 495.234 819.759 494.895 819.976 494.426C820.196 493.953 820.306 493.325 820.306 492.54C820.306 491.755 820.196 491.13 819.976 490.665C819.755 490.196 819.43 489.859 819.001 489.653C818.575 489.444 818.049 489.339 817.424 489.339H816.167V495.752ZM824.466 498V496.104L828.445 492.62C828.743 492.35 828.997 492.103 829.207 491.88C829.416 491.652 829.576 491.425 829.686 491.198C829.796 490.967 829.851 490.717 829.851 490.447C829.851 490.145 829.786 489.887 829.654 489.674C829.523 489.458 829.342 489.291 829.111 489.174C828.88 489.056 828.615 488.998 828.317 488.998C828.015 488.998 827.751 489.06 827.523 489.184C827.296 489.305 827.119 489.481 826.991 489.712C826.867 489.942 826.804 490.223 826.804 490.553H824.306C824.306 489.811 824.473 489.17 824.807 488.63C825.141 488.091 825.609 487.675 826.213 487.384C826.82 487.089 827.525 486.942 828.328 486.942C829.155 486.942 829.874 487.08 830.485 487.357C831.096 487.634 831.568 488.021 831.902 488.518C832.239 489.012 832.408 489.586 832.408 490.239C832.408 490.654 832.325 491.066 832.158 491.475C831.991 491.883 831.691 492.334 831.258 492.828C830.828 493.321 830.217 493.913 829.425 494.602L828.12 495.805V495.875H832.541V498H824.466Z" fill="black"/>
<path id="label_RF_A2" d="M672.617 502H669.783L673.463 491.091H676.974L680.655 502H677.821L675.259 493.839H675.173L672.617 502ZM672.238 497.707H678.162V499.71H672.238V497.707ZM681.808 502V500.104L685.787 496.62C686.085 496.35 686.339 496.103 686.549 495.88C686.758 495.652 686.918 495.425 687.028 495.198C687.138 494.967 687.193 494.717 687.193 494.447C687.193 494.145 687.127 493.887 686.996 493.674C686.865 493.458 686.683 493.291 686.453 493.174C686.222 493.056 685.957 492.998 685.659 492.998C685.357 492.998 685.093 493.06 684.865 493.184C684.638 493.305 684.46 493.481 684.333 493.712C684.208 493.942 684.146 494.223 684.146 494.553H681.648C681.648 493.811 681.815 493.17 682.149 492.63C682.482 492.091 682.951 491.675 683.555 491.384C684.162 491.089 684.867 490.942 685.67 490.942C686.497 490.942 687.216 491.08 687.827 491.357C688.438 491.634 688.91 492.021 689.244 492.518C689.581 493.012 689.75 493.586 689.75 494.239C689.75 494.654 689.666 495.066 689.5 495.475C689.333 495.883 689.033 496.334 688.599 496.828C688.17 497.321 687.559 497.913 686.767 498.602L685.462 499.805V499.875H689.883V502H681.808Z" fill="black"/>
<path id="label_RF_A3" d="M673.397 531H670.563L674.244 520.091H677.754L681.435 531H678.601L676.039 522.839H675.954L673.397 531ZM673.019 526.707H678.942V528.71H673.019V526.707ZM686.738 531.149C685.907 531.149 685.17 531.007 684.527 530.723C683.888 530.435 683.383 530.039 683.014 529.535C682.645 529.031 682.457 528.45 682.45 527.793H685.102C685.113 528.031 685.189 528.243 685.331 528.427C685.473 528.608 685.667 528.75 685.912 528.853C686.157 528.956 686.436 529.008 686.748 529.008C687.061 529.008 687.336 528.953 687.574 528.843C687.815 528.729 688.004 528.575 688.138 528.379C688.273 528.18 688.339 527.953 688.336 527.697C688.339 527.442 688.266 527.214 688.117 527.016C687.968 526.817 687.757 526.662 687.483 526.552C687.213 526.442 686.894 526.387 686.524 526.387H685.464V524.512H686.524C686.848 524.512 687.132 524.459 687.377 524.352C687.625 524.246 687.819 524.097 687.957 523.905C688.096 523.71 688.163 523.486 688.16 523.234C688.163 522.989 688.105 522.774 687.984 522.589C687.867 522.401 687.702 522.255 687.489 522.152C687.279 522.049 687.036 521.998 686.759 521.998C686.468 521.998 686.203 522.049 685.965 522.152C685.731 522.255 685.544 522.401 685.406 522.589C685.267 522.777 685.195 522.996 685.187 523.244H682.668C682.675 522.594 682.856 522.023 683.211 521.529C683.566 521.032 684.049 520.643 684.66 520.363C685.274 520.082 685.974 519.942 686.759 519.942C687.54 519.942 688.227 520.078 688.82 520.352C689.413 520.625 689.875 520.998 690.205 521.471C690.535 521.939 690.701 522.47 690.701 523.063C690.704 523.678 690.504 524.184 690.099 524.581C689.697 524.979 689.181 525.224 688.549 525.316V525.402C689.394 525.501 690.031 525.775 690.461 526.222C690.894 526.669 691.109 527.229 691.105 527.9C691.105 528.532 690.919 529.093 690.546 529.583C690.177 530.07 689.662 530.453 689.001 530.734C688.344 531.011 687.59 531.149 686.738 531.149Z" fill="black"/>
<path id="label_RF_WB3" d="M666.475 570L663.3 559.091H666.214L667.86 566.239H667.95L669.831 559.091H672.206L674.087 566.255H674.177L675.828 559.091H678.737L675.567 570H673.027L671.061 563.384H670.976L669.01 570H666.475ZM679.826 570V559.091H684.375C685.192 559.091 685.875 559.206 686.426 559.437C686.98 559.668 687.395 559.991 687.672 560.407C687.953 560.822 688.093 561.303 688.093 561.85C688.093 562.266 688.006 562.637 687.832 562.963C687.658 563.287 687.418 563.555 687.113 563.768C686.808 563.981 686.454 564.13 686.053 564.215V564.322C686.493 564.343 686.9 564.462 687.273 564.679C687.649 564.895 687.951 565.197 688.178 565.584C688.406 565.968 688.519 566.422 688.519 566.948C688.519 567.534 688.37 568.058 688.072 568.519C687.774 568.977 687.342 569.339 686.777 569.606C686.213 569.869 685.527 570 684.721 570H679.826ZM682.463 567.875H684.093C684.665 567.875 685.085 567.766 685.355 567.55C685.629 567.333 685.765 567.031 685.765 566.644C685.765 566.364 685.7 566.122 685.568 565.92C685.437 565.714 685.25 565.556 685.009 565.446C684.768 565.332 684.478 565.275 684.141 565.275H682.463V567.875ZM682.463 563.576H683.922C684.21 563.576 684.466 563.528 684.689 563.432C684.913 563.336 685.087 563.198 685.211 563.017C685.339 562.836 685.403 562.617 685.403 562.362C685.403 561.996 685.274 561.708 685.014 561.499C684.755 561.289 684.405 561.184 683.965 561.184H682.463V563.576ZM693.915 570.149C693.084 570.149 692.347 570.007 691.705 569.723C691.065 569.435 690.561 569.039 690.192 568.535C689.823 568.031 689.634 567.45 689.627 566.793H692.28C692.291 567.031 692.367 567.243 692.509 567.427C692.651 567.608 692.845 567.75 693.09 567.853C693.335 567.956 693.613 568.008 693.926 568.008C694.238 568.008 694.514 567.953 694.752 567.843C694.993 567.729 695.181 567.575 695.316 567.379C695.451 567.18 695.517 566.953 695.513 566.697C695.517 566.442 695.444 566.214 695.295 566.016C695.146 565.817 694.934 565.662 694.661 565.552C694.391 565.442 694.072 565.387 693.702 565.387H692.642V563.512H693.702C694.025 563.512 694.309 563.459 694.554 563.352C694.803 563.246 694.997 563.097 695.135 562.905C695.274 562.71 695.341 562.486 695.337 562.234C695.341 561.989 695.282 561.774 695.162 561.589C695.045 561.401 694.879 561.255 694.666 561.152C694.457 561.049 694.214 560.998 693.937 560.998C693.645 560.998 693.381 561.049 693.143 561.152C692.909 561.255 692.722 561.401 692.584 561.589C692.445 561.777 692.372 561.996 692.365 562.244H689.846C689.853 561.594 690.034 561.023 690.389 560.529C690.744 560.032 691.227 559.643 691.838 559.363C692.452 559.082 693.152 558.942 693.937 558.942C694.718 558.942 695.405 559.078 695.998 559.352C696.591 559.625 697.053 559.998 697.383 560.471C697.713 560.939 697.878 561.47 697.878 562.063C697.882 562.678 697.681 563.184 697.276 563.581C696.875 563.979 696.358 564.224 695.726 564.316V564.402C696.572 564.501 697.209 564.775 697.639 565.222C698.072 565.669 698.287 566.229 698.283 566.9C698.283 567.532 698.097 568.093 697.724 568.583C697.355 569.07 696.84 569.453 696.179 569.734C695.522 570.011 694.768 570.149 693.915 570.149Z" fill="black"/>
<path id="box_RegisterFile" fill-rule="evenodd" clip-rule="evenodd" d="M843.827 609.849H659.236V423.595H843.827V609.849ZM662.236 606.849H840.827V426.595H715.514L696.45 448.527L677.384 426.595H662.236V606.849ZM696.45 443.955L711.538 426.595H681.36L696.45 443.955Z" fill="black"/>
<path id="box_PC" fill-rule="evenodd" clip-rule="evenodd" d="M270 489H237V425H270V489ZM253.5 446L240 428.305V486H267V428.305L253.5 446ZM253.5 441.056L263.46 428H243.54L253.5 441.056Z" fill="black"/>
<path id="wire_InstrD" d="M565 462H596M596 462V286M596 462V810.5M596 462H616.5M616.5 462V454.5H660M616.5 462V499.5H660" stroke="black" stroke-width="3"/>
<line id="wire_AdderPC_Plus4" x1="332" y1="733.5" x2="367" y2="733.5" stroke="black" stroke-width="3"/>
</g>
</svg>
